<?xml version="1.0" standalone="no"?>
<!DOCTYPE svg PUBLIC "-//W3C//DTD SVG 20010904//EN"
 "http://www.w3.org/TR/2001/REC-SVG-20010904/DTD/svg10.dtd">
<svg version="1.0" xmlns="http://www.w3.org/2000/svg"
 width="900.000000pt" height="900.000000pt" viewBox="0 0 900.000000 900.000000"
 preserveAspectRatio="xMidYMid meet">
<metadata>
Created by potrace 1.10, written by Peter Selinger 2001-2011
</metadata>
<g transform="translate(0.000000,900.000000) scale(0.100000,-0.100000)"
fill="#000000" stroke="none">
<path d="M3435 8759 c-122 -52 -328 -157 -395 -202 -36 -24 -100 -68 -143 -98
-196 -135 -358 -227 -434 -245 -15 -3 -48 -12 -73 -19 -91 -26 -457 -76 -550
-75 -47 1 -268 -28 -360 -46 -185 -37 -374 -101 -575 -195 -161 -75 -261 -185
-328 -359 -19 -47 -22 -76 -22 -195 0 -86 7 -185 18 -255 18 -111 32 -205 58
-375 6 -44 15 -109 19 -145 4 -36 12 -92 18 -125 6 -33 18 -114 27 -180 15
-113 25 -186 61 -435 29 -200 65 -466 89 -645 48 -367 75 -500 153 -760 25
-83 71 -206 114 -305 34 -78 143 -298 167 -335 38 -60 49 -79 58 -95 7 -16
103 -156 156 -231 67 -92 185 -227 314 -359 l133 -135 0 -90 c0 -49 -6 -166
-14 -260 -20 -230 -36 -443 -46 -605 -8 -133 -17 -247 -45 -590 -8 -96 -15
-197 -15 -225 0 -27 -6 -129 -15 -225 -38 -445 -52 -675 -46 -747 1 -10 554
-13 2731 -13 2177 0 2730 3 2731 13 3 49 -4 238 -12 312 -6 50 -14 158 -19
240 -5 83 -13 209 -19 280 -6 72 -17 229 -26 350 -9 121 -22 301 -31 400 -8
99 -16 209 -18 245 -6 127 -27 408 -41 565 -8 88 -15 203 -15 255 l0 95 145
148 c182 186 247 264 392 477 60 87 74 110 93 145 6 11 19 34 30 50 40 63 210
414 210 435 0 5 6 24 14 42 32 76 47 119 90 273 53 190 80 334 121 650 9 66
22 165 30 220 7 55 21 154 30 220 9 66 22 163 30 215 8 52 21 143 30 203 31
217 44 315 60 427 9 63 23 153 31 200 8 47 14 105 14 130 0 25 7 67 15 94 8
27 15 68 15 92 0 23 7 76 16 116 22 96 25 368 5 418 -55 141 -127 242 -226
316 -49 37 -161 91 -282 138 -24 9 -60 22 -80 30 -21 8 -63 22 -93 31 -30 8
-70 20 -89 26 -96 31 -305 64 -501 79 -154 11 -317 29 -385 42 -33 6 -78 14
-100 18 -138 26 -270 80 -399 165 -38 25 -71 45 -73 45 -3 0 -30 19 -61 43
-32 23 -65 47 -74 52 -9 6 -49 32 -89 59 -81 55 -269 153 -401 209 l-86 37
-984 0 -983 -1 -70 -30z m2011 -690 c54 -28 137 -78 184 -110 294 -202 314
-214 485 -298 108 -53 239 -99 350 -124 169 -37 458 -77 562 -77 145 0 423
-51 573 -106 172 -62 170 -60 147 -181 -9 -43 -23 -132 -32 -198 -9 -66 -23
-157 -31 -202 -7 -45 -14 -101 -14 -125 0 -24 -5 -59 -10 -78 -6 -19 -15 -75
-20 -125 -6 -49 -14 -112 -19 -140 -6 -27 -17 -102 -26 -165 -9 -63 -22 -160
-30 -215 -25 -172 -55 -393 -90 -660 -9 -66 -22 -160 -30 -210 -8 -49 -17
-110 -20 -135 -4 -25 -10 -58 -15 -75 -5 -16 -16 -59 -25 -95 -64 -251 -189
-547 -306 -724 -22 -32 -39 -60 -39 -63 0 -10 -185 -246 -246 -313 -55 -60
-209 -211 -270 -265 -122 -107 -150 -133 -163 -148 -18 -19 -18 -151 -1 -302
5 -44 12 -123 15 -175 5 -95 23 -335 50 -695 30 -400 36 -484 45 -630 5 -82
13 -190 19 -240 5 -49 11 -144 13 -210 l3 -120 -2015 0 -2015 0 3 115 c2 63
10 180 18 259 8 79 14 178 14 220 0 42 5 108 11 146 5 39 14 149 19 245 5 96
14 227 19 290 18 202 32 391 41 545 5 83 14 197 19 255 6 58 12 145 15 194 5
101 13 86 -103 186 -84 73 -73 63 -181 165 -118 112 -214 216 -293 320 -33 44
-63 82 -67 85 -5 5 -36 50 -55 82 -5 9 -33 54 -61 100 -138 227 -258 539 -308
803 -21 111 -42 248 -61 395 -9 69 -20 150 -25 180 -5 30 -12 82 -15 115 -4
33 -12 101 -20 150 -7 50 -21 142 -30 205 -26 190 -70 495 -90 630 -8 52 -21
145 -29 205 -9 61 -23 162 -31 225 -9 63 -24 149 -32 191 -25 121 -26 120 147
183 146 54 433 106 580 106 97 0 388 40 555 77 109 24 241 71 350 124 165 80
190 95 485 298 47 32 128 81 180 109 l95 50 861 1 860 1 100 -51z"/>
<path d="M2975 5600 c-82 -15 -169 -86 -205 -168 -27 -61 -29 -308 -3 -374 32
-83 191 -269 277 -325 83 -54 103 -56 491 -60 313 -4 369 -2 430 12 88 22 143
53 199 117 80 88 106 172 106 337 0 230 -67 358 -228 437 l-57 28 -485 2
c-267 0 -503 -2 -525 -6z"/>
<path d="M5020 5600 c-104 -14 -212 -95 -263 -197 -60 -119 -64 -390 -6 -510
27 -56 100 -136 152 -166 91 -53 148 -59 542 -54 373 4 395 6 478 50 77 41
255 246 290 335 26 66 24 313 -3 374 -25 57 -87 120 -148 150 l-47 23 -475 1
c-261 0 -495 -2 -520 -6z"/>
<path d="M3238 4195 c-96 -27 -172 -107 -201 -211 -11 -38 -17 -97 -17 -162 0
-161 19 -200 183 -377 16 -16 40 -45 54 -63 14 -18 46 -47 72 -65 l46 -32 310
0 c290 0 313 1 350 20 127 63 196 150 221 280 29 148 13 330 -39 428 -49 94
-130 156 -237 183 -76 18 -673 18 -742 -1z"/>
<path d="M4995 4195 c-190 -49 -285 -201 -285 -455 0 -228 66 -351 235 -435
37 -19 60 -20 350 -20 l310 0 58 44 c31 24 57 46 57 50 0 3 19 26 43 51 178
192 197 229 197 392 0 212 -73 334 -225 373 -75 20 -664 19 -740 0z"/>
<path d="M3363 2792 c-23 -10 -48 -23 -55 -30 -6 -6 -17 -12 -22 -12 -14 0
-59 -56 -91 -113 -25 -45 -25 -48 -25 -284 0 -265 5 -292 69 -392 50 -78 472
-495 527 -522 129 -62 305 -17 410 104 83 97 94 163 94 561 0 329 -8 422 -40
486 -52 101 -124 165 -227 201 -50 17 -84 19 -327 18 -232 0 -277 -3 -313 -17z"/>
<path d="M4971 2789 c-133 -49 -217 -146 -247 -284 -17 -78 -19 -694 -3 -781
28 -145 119 -250 256 -295 98 -33 208 -18 280 37 69 52 464 458 491 503 58 99
62 124 62 384 0 214 -2 242 -19 275 -25 50 -76 112 -104 128 -88 50 -76 49
-377 51 -262 2 -289 0 -339 -18z"/>
</g>
</svg>
