<?xml version="1.0" standalone="no"?>
<!DOCTYPE svg PUBLIC "-//W3C//DTD SVG 20010904//EN"
 "http://www.w3.org/TR/2001/REC-SVG-20010904/DTD/svg10.dtd">
<svg version="1.0" xmlns="http://www.w3.org/2000/svg"
 width="900.000000pt" height="939.000000pt" viewBox="0 0 900.000000 939.000000"
 preserveAspectRatio="xMidYMid meet">
<metadata>
Created by potrace 1.10, written by Peter Selinger 2001-2011
</metadata>
<g transform="translate(0.000000,939.000000) scale(0.100000,-0.100000)"
fill="#000000" stroke="none">
<path d="M3263 8812 c-293 -219 -282 -212 -350 -212 -77 0 -343 -40 -473 -72
-25 -6 -63 -14 -85 -19 -22 -4 -71 -17 -110 -29 -38 -12 -86 -25 -105 -30 -19
-4 -60 -18 -90 -30 -30 -12 -66 -25 -80 -30 -95 -33 -315 -136 -385 -181 -16
-10 -37 -22 -45 -26 -112 -53 -378 -280 -489 -417 -189 -233 -284 -435 -357
-761 -26 -116 -26 -512 -1 -635 50 -235 70 -319 93 -390 21 -67 18 -85 -29
-158 -24 -37 -47 -74 -50 -82 -4 -8 -16 -28 -26 -45 -27 -42 -134 -259 -161
-325 -44 -111 -73 -192 -93 -260 -75 -254 -106 -456 -108 -690 l-2 -164 119
-114 c253 -243 340 -325 619 -587 22 -20 79 -75 127 -121 87 -84 103 -93 136
-74 9 6 72 28 139 49 66 22 129 44 140 50 10 5 38 19 63 31 146 70 370 251
445 359 48 70 55 49 90 -259 31 -283 44 -696 24 -774 -5 -22 -17 -66 -25 -96
-8 -30 -21 -77 -29 -105 -7 -27 -20 -75 -28 -105 -53 -196 -68 -284 -74 -441
-4 -124 -2 -161 16 -245 29 -136 62 -248 90 -302 5 -9 25 -51 45 -92 87 -176
185 -310 347 -470 114 -113 156 -148 333 -276 l88 -64 1508 0 1509 0 68 47
c145 99 272 201 363 293 96 96 222 253 276 345 16 27 34 59 41 70 7 11 17 30
23 43 5 13 20 46 33 75 88 194 121 343 120 547 0 190 -21 300 -139 710 -17 58
-19 97 -16 357 1 188 7 333 17 405 8 62 15 132 15 154 0 36 23 175 35 212 3 8
53 -36 122 -106 118 -120 195 -183 288 -238 89 -52 202 -103 280 -124 39 -11
91 -29 133 -46 18 -8 38 -14 45 -14 7 0 37 24 67 53 30 28 127 119 215 202 88
82 172 161 186 175 14 14 100 95 190 180 90 85 197 187 238 225 l73 70 -6 200
c-9 260 -34 412 -114 680 -63 214 -210 522 -339 712 l-35 51 15 49 c14 45 29
104 57 218 7 28 16 73 20 100 4 28 12 68 18 90 33 132 39 390 13 585 -13 97
-51 252 -86 348 -16 44 -95 210 -118 247 -54 87 -101 161 -106 165 -3 3 -24
28 -45 55 -56 71 -188 201 -276 272 -110 88 -251 177 -420 264 -27 14 -124 56
-180 79 -30 12 -70 28 -88 36 -18 8 -39 14 -47 14 -8 0 -29 6 -47 14 -153 64
-654 166 -817 166 l-60 0 -198 148 c-109 81 -219 162 -245 180 l-47 32 -1030
0 -1030 0 -198 -148z m2049 -563 c12 -6 119 -85 240 -175 l219 -164 130 0
c155 0 391 -32 554 -74 179 -47 211 -57 293 -92 18 -8 38 -14 44 -14 14 0 196
-84 243 -113 269 -162 445 -351 521 -562 49 -133 57 -187 58 -365 1 -176 -3
-201 -50 -392 -40 -162 -90 -344 -119 -433 -35 -105 -33 -111 50 -215 102
-127 182 -247 230 -345 9 -16 19 -37 24 -45 15 -25 68 -142 84 -185 59 -158
68 -185 77 -225 4 -19 13 -55 19 -80 6 -25 17 -83 25 -130 l15 -85 -113 -110
c-226 -221 -285 -275 -299 -275 -14 0 -111 89 -161 149 -38 44 -96 132 -130
196 -15 28 -31 57 -36 65 -18 31 -70 151 -70 163 0 6 -7 21 -15 31 -8 11 -15
28 -15 38 0 9 -6 32 -14 50 -7 18 -21 60 -31 93 -10 33 -26 85 -35 115 l-18
55 -169 5 c-156 5 -171 7 -213 30 -193 108 -377 292 -493 493 -41 70 -58 104
-90 177 -39 91 -47 112 -47 125 0 8 -6 29 -14 47 -23 54 -59 208 -87 373 -7
39 -17 162 -23 275 -13 238 -10 233 -111 179 -68 -36 -214 -130 -236 -151 -8
-8 -37 -32 -64 -53 -124 -98 -396 -373 -509 -515 -106 -133 -249 -326 -300
-404 -65 -100 -151 -266 -161 -309 -3 -16 -11 -27 -18 -24 -12 4 -17 12 -62
112 -23 50 -92 172 -148 260 -18 28 -219 299 -227 305 -3 3 -24 28 -46 55 -65
84 -111 133 -294 315 -212 212 -390 350 -540 420 -62 29 -75 24 -77 -30 -11
-243 -37 -475 -65 -590 -6 -25 -14 -65 -18 -90 -5 -25 -13 -56 -18 -70 -6 -14
-19 -54 -30 -90 -104 -334 -325 -624 -597 -786 -88 -52 -97 -54 -260 -54 -168
0 -162 2 -181 -65 -7 -22 -19 -65 -28 -95 -9 -30 -21 -68 -26 -85 -11 -40 -30
-92 -48 -135 -8 -19 -20 -48 -27 -65 -66 -162 -192 -354 -302 -460 -31 -30
-64 -55 -72 -55 -9 0 -59 41 -111 91 -52 50 -139 133 -193 185 -53 51 -98 101
-99 111 -5 43 28 226 57 318 7 22 23 73 35 113 13 40 27 75 31 78 5 3 9 12 9
20 0 27 124 271 185 364 43 65 173 238 185 245 6 3 17 19 25 35 15 30 12 57
-23 165 -28 87 -68 238 -116 433 -35 143 -41 193 -41 362 0 130 5 192 17 240
91 353 333 602 763 785 17 7 47 20 68 29 21 9 44 16 52 16 8 0 29 6 47 14 159
66 549 136 762 136 l127 0 64 45 c35 24 72 51 82 59 39 31 299 223 318 234 28
16 1607 17 1637 1z m-793 -3444 c0 -33 8 -105 16 -160 37 -237 47 -293 61
-341 8 -28 14 -59 14 -69 0 -10 6 -41 14 -69 8 -28 22 -80 32 -116 27 -107 75
-263 90 -298 8 -18 14 -39 14 -47 0 -8 6 -29 14 -47 8 -18 21 -49 30 -70 9
-20 16 -41 16 -46 0 -6 6 -23 14 -39 13 -27 35 -75 62 -138 54 -127 213 -435
240 -466 8 -8 14 -19 14 -23 0 -5 14 -28 30 -53 17 -24 30 -46 30 -48 0 -6 89
-134 139 -201 71 -93 164 -202 180 -208 22 -10 57 19 202 163 126 126 223 243
278 334 25 41 45 44 48 6 9 -91 26 -201 38 -239 7 -25 20 -74 30 -110 10 -36
23 -85 30 -110 63 -224 77 -304 72 -392 -6 -102 -24 -165 -78 -277 -66 -135
-189 -285 -321 -387 l-56 -44 -1277 0 -1277 0 -58 45 c-207 159 -349 376 -396
602 -16 78 -16 87 0 170 23 116 51 228 119 473 26 94 47 208 47 260 0 28 4 50
8 50 9 0 52 -55 52 -65 0 -10 120 -166 164 -214 83 -90 222 -224 259 -248 l38
-26 25 24 c56 52 218 264 294 384 176 279 307 540 405 805 25 68 47 125 61
158 8 18 14 39 14 47 0 8 6 29 14 47 13 31 21 60 60 201 69 252 126 556 141
752 6 75 18 140 32 175 8 19 21 -66 22 -145z"/>
</g>
</svg>
