<?xml version="1.0" standalone="no"?>
<!DOCTYPE svg PUBLIC "-//W3C//DTD SVG 20010904//EN"
 "http://www.w3.org/TR/2001/REC-SVG-20010904/DTD/svg10.dtd">
<svg version="1.0" xmlns="http://www.w3.org/2000/svg"
 width="600.000000pt" height="600.000000pt" viewBox="0 0 600.000000 600.000000"
 preserveAspectRatio="xMidYMid meet">
<metadata>
Created by potrace 1.10, written by Peter Selinger 2001-2011
</metadata>
<g transform="translate(0.000000,600.000000) scale(0.100000,-0.100000)"
fill="#000000" stroke="none">
<path d="M1363 5517 c-24 -11 -37 -46 -26 -74 4 -10 25 -49 48 -88 23 -38 69
-128 104 -200 58 -121 73 -153 106 -230 34 -80 90 -234 105 -290 5 -16 14 -46
20 -65 7 -19 16 -48 22 -65 6 -16 13 -48 17 -70 4 -22 12 -56 18 -75 28 -88
67 -322 84 -497 29 -317 -5 -701 -82 -928 -6 -16 -14 -43 -19 -60 -5 -16 -18
-55 -30 -85 -12 -30 -24 -63 -27 -73 -14 -45 -113 -226 -174 -317 -20 -30 -51
-84 -69 -120 -17 -36 -38 -78 -46 -93 -8 -16 -14 -35 -14 -42 0 -7 -6 -26 -14
-42 -13 -26 -28 -76 -61 -198 -33 -121 -59 -288 -72 -454 -11 -142 38 -429
103 -603 36 -98 50 -131 102 -237 31 -62 66 -127 80 -142 l24 -29 1415 0 1415
0 28 30 c26 28 109 187 145 280 9 25 22 56 27 70 34 87 68 213 92 340 42 220
3 616 -86 875 -5 17 -14 45 -18 64 -5 18 -13 38 -19 44 -6 6 -11 18 -11 27 0
24 -106 228 -130 250 -6 5 -38 53 -57 85 -6 11 -34 65 -61 120 -98 199 -134
314 -189 595 -15 80 -18 145 -18 400 1 311 1 313 47 550 5 30 13 75 17 100 4
25 13 65 20 90 34 126 43 157 53 185 5 17 14 46 18 65 10 45 28 97 46 133 8
16 14 35 14 44 0 8 6 27 14 41 8 15 22 47 31 72 29 74 100 234 116 260 5 8 11
21 14 28 3 6 7 18 10 25 7 16 50 94 99 180 33 59 37 72 27 93 -14 31 -49 45
-76 31 -23 -12 -41 -35 -74 -96 -13 -24 -31 -58 -41 -75 -45 -76 -154 -310
-195 -416 -18 -47 -42 -104 -55 -130 -6 -13 -151 -15 -1195 -18 -1095 -2
-1190 -1 -1207 15 -10 9 -18 25 -18 36 0 10 -6 31 -14 45 -8 15 -22 47 -31 72
-10 25 -23 59 -30 75 -25 57 -177 360 -196 390 -10 17 -23 39 -28 50 -19 44
-64 68 -98 52z m2760 -887 c0 -14 -11 -56 -23 -95 -12 -38 -25 -88 -29 -110
-4 -22 -13 -58 -19 -80 -13 -47 -34 -160 -59 -305 -14 -84 -17 -167 -18 -420
0 -319 5 -374 47 -550 6 -25 14 -63 19 -85 14 -73 53 -192 75 -237 8 -14 14
-31 14 -38 0 -15 86 -193 123 -253 l29 -48 -33 -32 c-19 -18 -63 -55 -99 -83
-57 -44 -92 -67 -185 -121 -11 -6 -51 -27 -90 -46 -174 -85 -312 -127 -566
-172 -120 -22 -564 -21 -664 0 -38 8 -81 15 -94 15 -13 0 -49 7 -80 16 -31 8
-81 22 -111 31 -52 14 -80 24 -175 61 -52 20 -172 79 -210 103 -16 10 -37 22
-45 26 -16 7 -72 45 -80 53 -3 3 -32 27 -65 52 -33 25 -70 56 -82 69 -24 27
-30 9 52 169 61 121 101 219 125 305 5 17 13 44 19 60 64 189 110 599 91 828
-5 67 -12 156 -15 197 -13 167 -88 531 -136 658 -5 13 -9 32 -9 43 0 19 14 19
1148 17 l1147 -3 -2 -25z m272 -2407 c56 -118 81 -181 95 -243 4 -19 12 -48
18 -65 12 -37 36 -151 56 -271 21 -121 21 -368 0 -471 -29 -145 -87 -339 -123
-411 -4 -9 -23 -48 -41 -87 -19 -38 -43 -80 -54 -92 l-19 -23 -633 0 c-533 0
-633 2 -643 14 -9 10 -11 75 -9 229 l3 214 183 182 c100 101 182 190 182 199
0 23 -40 62 -64 62 -13 0 -81 -60 -186 -165 -92 -91 -171 -165 -178 -165 -6 0
-85 74 -176 165 -185 184 -208 197 -245 128 -18 -36 2 -62 188 -248 l171 -170
0 -217 c0 -217 0 -218 -22 -223 -13 -3 -306 -4 -652 -3 l-629 3 -28 50 c-16
28 -32 57 -35 65 -3 8 -12 30 -20 47 -8 18 -21 47 -28 65 -8 18 -21 50 -30 71
-9 21 -16 44 -16 52 0 8 -6 29 -14 47 -16 38 -39 139 -58 253 -39 238 7 562
128 897 26 72 76 170 90 175 8 3 41 -18 77 -50 100 -88 182 -141 332 -215 187
-92 359 -148 525 -172 36 -5 87 -14 114 -20 80 -18 552 -14 666 5 129 22 237
45 285 60 22 7 73 23 113 35 40 13 75 27 78 31 3 5 12 9 20 9 17 0 202 89 249
120 17 11 37 23 45 27 17 7 147 107 200 152 19 17 38 31 42 31 3 0 23 -35 43
-77z"/>
<path d="M2855 4408 c-40 -10 -96 -32 -125 -49 -8 -5 -22 -12 -30 -16 -68 -30
-219 -187 -287 -298 -119 -194 -201 -495 -204 -744 -2 -118 -1 -125 21 -143
29 -23 33 -23 67 6 27 24 28 27 34 163 7 140 19 220 45 304 8 26 14 54 14 63
0 8 6 30 14 48 8 18 29 69 47 113 18 44 38 87 46 96 7 8 13 19 13 22 0 12 73
111 114 156 189 202 421 226 621 64 56 -46 142 -142 168 -190 19 -34 83 -165
96 -196 54 -131 97 -341 108 -531 5 -85 9 -103 27 -118 28 -24 41 -22 71 7 31
32 32 74 9 250 -36 283 -105 483 -232 673 -145 218 -330 333 -532 330 -36 0
-83 -5 -105 -10z"/>
<path d="M2960 4072 c-33 -10 -40 -36 -40 -137 0 -130 -4 -135 -117 -135 -74
0 -83 2 -118 30 -45 36 -45 36 -79 9 -31 -25 -33 -57 -5 -93 35 -44 83 -60
204 -66 l110 -5 3 -142 c2 -138 2 -143 -20 -157 -22 -14 -71 -20 -134 -17 -17
0 -48 12 -68 26 -44 30 -77 32 -99 7 -20 -22 -21 -45 -5 -75 27 -51 106 -78
238 -80 l85 -2 3 -141 c3 -172 6 -169 -117 -169 -75 0 -90 3 -117 23 -39 29
-73 26 -93 -9 -21 -38 -1 -82 53 -110 34 -19 60 -23 151 -25 61 -2 113 -3 118
-3 4 -1 7 -35 7 -76 0 -62 4 -79 20 -95 26 -26 46 -25 75 5 22 21 25 33 25 95
0 38 3 70 8 70 4 0 53 2 110 4 96 3 107 6 145 33 35 24 43 35 45 68 5 62 -48
87 -94 44 -27 -25 -157 -39 -192 -20 -22 12 -22 16 -20 159 l3 147 75 1 c88 2
174 25 207 56 16 15 23 33 23 58 0 64 -42 78 -106 35 -31 -21 -48 -25 -109
-25 -50 0 -76 4 -84 14 -8 9 -11 60 -9 157 l3 144 100 6 c144 8 205 41 205
111 0 29 -6 41 -26 54 -24 17 -27 16 -70 -14 -40 -29 -52 -32 -117 -32 -44 0
-78 5 -85 12 -8 8 -12 47 -12 110 0 53 -5 108 -11 122 -11 24 -41 36 -69 28z"/>
<path d="M2932 2390 c-46 -20 -52 -115 -9 -145 45 -31 117 -13 137 34 13 33 9
65 -12 94 -16 21 -82 31 -116 17z"/>
</g>
</svg>
