<?xml version="1.0" standalone="no"?>
<!DOCTYPE svg PUBLIC "-//W3C//DTD SVG 20010904//EN"
 "http://www.w3.org/TR/2001/REC-SVG-20010904/DTD/svg10.dtd">
<svg version="1.0" xmlns="http://www.w3.org/2000/svg"
 width="900.000000pt" height="900.000000pt" viewBox="0 0 900.000000 900.000000"
 preserveAspectRatio="xMidYMid meet">
<metadata>
Created by potrace 1.10, written by Peter Selinger 2001-2011
</metadata>
<g transform="translate(0.000000,900.000000) scale(0.100000,-0.100000)"
fill="#000000" stroke="none">
<path d="M4699 8787 c-65 -30 -102 -80 -119 -160 -14 -65 -31 -130 -40 -152
-5 -11 -13 -40 -19 -65 -6 -25 -24 -97 -42 -160 -17 -63 -37 -137 -44 -165
-60 -225 -99 -364 -108 -385 -11 -23 -448 -689 -576 -877 -31 -46 -61 -91 -66
-100 -6 -10 -82 -126 -170 -258 -88 -132 -166 -253 -174 -270 -20 -44 -18
-258 3 -360 63 -298 211 -519 444 -661 39 -24 95 -53 124 -64 29 -12 68 -29
87 -38 36 -18 31 -4 86 -237 7 -33 23 -98 34 -145 11 -47 31 -137 46 -200 14
-63 31 -133 36 -155 6 -22 16 -67 24 -100 15 -66 38 -167 61 -260 8 -33 19
-80 24 -105 6 -25 15 -57 21 -72 11 -26 1 -68 -32 -143 -9 -20 -36 -110 -63
-210 -8 -27 -21 -75 -29 -105 -8 -30 -29 -109 -47 -175 -30 -114 -46 -168 -75
-260 -7 -22 -18 -58 -25 -80 -70 -225 -239 -568 -454 -924 -61 -101 -118 -196
-126 -210 -9 -14 -44 -68 -78 -118 -68 -101 -81 -108 -145 -79 -164 75 -311
112 -389 100 -60 -10 -64 -3 -102 171 -31 145 -33 131 16 178 57 54 72 79 94
156 15 54 15 71 5 115 -7 28 -19 83 -28 121 -46 205 -68 257 -128 307 -30 25
-114 68 -134 68 -25 0 -51 32 -51 62 0 14 -6 48 -14 74 -8 27 -22 83 -31 124
-20 93 -41 187 -60 265 -7 33 -21 92 -29 130 -9 39 -29 126 -45 195 -16 69
-33 141 -36 160 -4 19 -11 49 -15 65 -5 17 -23 93 -40 170 -17 77 -37 167 -45
200 -8 33 -17 76 -20 95 -4 19 -10 46 -14 60 -5 14 -16 61 -25 105 -10 44 -24
105 -31 135 -16 66 -30 129 -80 355 -9 44 -24 107 -31 140 -8 33 -21 87 -28
120 -8 33 -22 92 -31 130 -9 39 -21 92 -26 119 -4 26 -12 62 -18 80 -5 17 -19
76 -31 131 -11 55 -25 116 -30 135 -18 71 -39 166 -45 200 -4 19 -11 49 -15
65 -5 17 -16 64 -25 105 -25 113 -52 234 -88 390 -40 171 -76 328 -82 360 -4
19 -11 49 -15 65 -5 17 -16 64 -25 105 -8 41 -22 102 -30 135 -7 33 -23 103
-35 155 -12 52 -25 111 -30 130 -20 82 -41 172 -66 285 -15 66 -33 147 -40
180 -29 127 -45 202 -54 248 -5 27 -12 52 -15 57 -3 5 -11 39 -19 77 -8 37
-21 97 -30 133 -9 36 -21 91 -26 124 -18 101 -57 146 -114 132 -61 -15 -78
-63 -55 -151 6 -22 14 -58 19 -80 30 -133 53 -238 67 -295 17 -76 36 -157 57
-255 9 -38 22 -99 31 -135 9 -36 22 -92 29 -125 13 -57 30 -132 62 -272 8 -35
21 -93 30 -130 9 -38 22 -95 29 -128 8 -33 21 -89 29 -125 9 -36 21 -92 26
-124 6 -33 14 -64 17 -70 4 -5 12 -40 19 -76 7 -36 20 -96 29 -135 39 -166 53
-228 89 -390 9 -38 23 -99 31 -135 9 -36 21 -89 26 -119 5 -30 12 -59 16 -64
3 -5 12 -39 19 -76 7 -36 21 -97 30 -136 8 -38 22 -99 30 -135 19 -85 38 -168
59 -255 9 -38 21 -91 25 -116 5 -25 13 -64 18 -85 6 -21 18 -70 27 -109 9 -38
22 -97 30 -130 8 -33 21 -96 31 -140 9 -44 22 -102 29 -130 8 -27 21 -84 30
-125 23 -103 43 -194 60 -265 7 -33 23 -103 35 -155 12 -52 32 -140 45 -195
40 -176 46 -199 60 -265 14 -62 25 -111 61 -265 8 -38 22 -99 30 -135 16 -70
22 -97 54 -235 12 -49 25 -114 31 -144 5 -29 14 -62 19 -72 16 -29 13 -35 -43
-93 -83 -84 -115 -192 -86 -286 6 -19 17 -64 24 -100 8 -36 19 -90 25 -119 28
-133 112 -225 227 -249 35 -7 38 -11 55 -67 19 -66 44 -178 54 -240 6 -39 4
-42 -38 -72 -55 -40 -122 -105 -173 -168 -22 -28 -48 -59 -57 -70 -112 -134
-144 -177 -174 -237 -51 -102 -74 -195 -74 -308 0 -52 5 -111 10 -130 5 -19
13 -51 18 -72 24 -93 184 -338 251 -384 49 -33 134 -34 182 -1 54 37 79 82 79
145 0 60 -9 78 -94 197 -28 39 -59 86 -69 105 -40 79 -38 212 4 287 22 39 207
269 254 316 35 35 107 67 150 67 27 0 119 -31 210 -70 11 -5 41 -18 67 -29 26
-12 54 -21 62 -21 8 0 17 -4 20 -9 9 -14 101 -41 141 -41 45 0 81 18 121 62
31 33 222 319 303 453 23 39 46 77 51 85 56 90 158 266 203 352 113 212 140
268 207 423 12 28 28 64 36 82 8 17 14 37 14 45 0 8 4 18 9 23 4 6 25 64 46
130 20 66 43 138 50 160 13 39 24 78 60 215 9 36 21 76 26 90 4 14 11 41 14
60 4 19 12 53 20 75 7 22 25 83 40 135 34 118 86 244 141 335 41 69 42 73 54
210 29 339 61 607 121 1020 6 39 14 102 19 140 14 113 29 224 44 320 8 50 22
146 31 215 9 69 21 142 26 163 5 20 13 81 16 136 5 79 3 104 -10 127 -80 146
-115 345 -116 655 -1 189 -8 225 -53 265 -37 34 -63 44 -118 44 -59 0 -97 -17
-134 -60 -43 -52 -49 -95 -42 -325 7 -265 31 -415 96 -605 27 -78 28 -91 20
-160 -5 -42 -11 -87 -15 -100 -3 -14 -10 -56 -15 -95 -6 -38 -17 -117 -25
-175 -8 -58 -24 -170 -35 -250 -12 -80 -25 -176 -30 -215 -5 -38 -16 -122 -25
-185 -9 -63 -20 -155 -26 -205 -10 -86 -23 -125 -33 -94 -2 8 -10 30 -16 49
-7 19 -18 62 -25 95 -7 33 -21 92 -30 130 -9 39 -23 99 -31 135 -14 57 -22 93
-51 210 -15 64 -82 118 -164 134 -19 4 -52 14 -74 23 -162 64 -254 135 -327
253 -67 109 -97 206 -100 335 l-3 90 105 156 c58 85 110 163 115 171 6 9 100
150 209 314 348 522 523 788 539 819 8 17 19 49 22 70 4 22 12 48 17 57 5 10
12 37 17 60 5 24 16 70 26 103 9 33 23 83 31 110 7 28 27 102 45 165 37 137
53 196 73 270 8 30 22 82 32 115 46 157 20 247 -82 290 -42 18 -88 18 -125 2z
m-2093 -6263 c27 -18 45 -55 60 -124 7 -30 20 -86 29 -125 28 -121 28 -128 5
-168 -36 -61 -96 -82 -157 -55 -52 23 -66 51 -94 183 -11 50 -25 110 -30 135
-12 55 -6 92 22 131 33 47 111 58 165 23z"/>
<path d="M6071 8784 c-33 -15 -63 -44 -88 -88 -19 -32 -15 -105 8 -166 11 -30
24 -68 29 -85 4 -16 33 -106 63 -200 57 -175 106 -332 131 -420 8 -27 21 -75
29 -105 9 -30 23 -82 32 -115 9 -33 23 -80 29 -105 7 -25 21 -74 31 -110 9
-36 25 -92 35 -125 9 -33 15 -66 13 -72 -3 -8 -26 -13 -62 -13 -66 0 -105 -20
-147 -76 -26 -34 -29 -45 -27 -109 1 -40 6 -98 12 -130 23 -123 1 -402 -43
-560 -17 -61 -64 -161 -111 -234 -24 -37 -36 -70 -40 -110 -3 -31 -10 -76 -16
-101 -5 -25 -16 -97 -25 -160 -8 -63 -19 -142 -24 -175 -25 -168 -43 -290 -56
-385 -8 -58 -16 -112 -19 -120 -2 -8 -9 -53 -15 -100 -5 -47 -17 -130 -26
-185 -8 -55 -21 -145 -29 -200 -7 -55 -17 -125 -23 -155 -5 -30 -17 -111 -27
-180 -9 -69 -20 -147 -25 -175 -5 -27 -12 -77 -16 -110 -7 -71 -31 -180 -44
-203 -5 -9 -20 -42 -33 -72 -53 -118 -191 -414 -209 -445 -6 -11 -42 -80 -81
-155 -136 -264 -266 -488 -390 -675 -60 -89 -210 -292 -260 -350 -14 -16 -65
-79 -113 -140 -48 -60 -124 -153 -168 -205 -45 -53 -101 -120 -126 -150 -81
-97 -534 -625 -540 -630 -4 -3 -35 -38 -69 -77 l-62 -73 -73 0 c-63 0 -75 3
-94 23 -12 13 -22 31 -22 41 0 68 -101 191 -198 238 -60 30 -74 33 -161 33
-83 0 -104 -4 -151 -26 -228 -107 -293 -384 -137 -583 60 -75 189 -136 289
-136 64 0 197 44 213 71 5 6 70 8 194 3 102 -4 213 -4 246 1 53 6 64 12 105
53 69 70 440 498 665 767 22 26 45 53 50 59 6 6 28 33 50 60 22 28 51 61 64
75 12 14 75 91 140 170 64 79 140 174 170 210 83 102 227 296 276 372 98 151
134 207 178 281 26 43 47 80 47 83 0 3 11 23 25 45 55 88 289 543 370 720 26
58 60 132 75 165 63 137 90 209 95 258 4 29 11 72 16 97 5 25 16 97 25 160 22
163 31 232 48 340 8 52 21 147 30 210 9 63 18 125 21 138 3 13 10 55 15 95 6
40 17 119 25 177 9 58 22 150 30 205 17 125 31 225 50 340 8 50 17 108 20 130
32 255 46 315 72 315 17 0 17 -46 -2 -117 -8 -31 -15 -78 -15 -104 0 -25 -4
-59 -9 -75 -6 -16 -15 -81 -21 -144 -16 -156 -36 -338 -48 -435 -6 -44 -18
-156 -27 -250 -9 -93 -20 -197 -25 -230 -21 -132 -31 -369 -21 -475 24 -256
124 -478 343 -761 262 -340 365 -487 420 -599 57 -117 82 -190 103 -301 9 -46
21 -104 28 -129 19 -75 15 -437 -6 -550 -26 -134 -63 -268 -93 -337 -8 -17
-14 -36 -14 -42 0 -6 -4 -19 -10 -29 -5 -9 -33 -66 -61 -127 -55 -114 -127
-239 -208 -360 -57 -85 -71 -116 -71 -159 0 -102 101 -189 198 -171 58 11 106
54 174 155 66 99 82 125 94 150 4 8 24 42 45 76 40 66 114 217 149 304 12 30
26 64 31 75 5 11 18 49 29 85 11 36 25 79 30 96 51 161 85 448 76 649 -6 141
-9 163 -46 356 -55 294 -178 536 -445 878 -44 56 -90 117 -103 134 -13 18 -31
41 -41 52 -53 58 -182 266 -214 343 -40 98 -47 122 -62 215 -13 79 -13 114 -5
185 6 48 15 132 20 187 5 55 17 168 26 250 8 83 22 211 29 285 17 167 39 358
54 470 7 47 18 137 27 200 8 63 19 135 24 160 5 25 12 68 15 95 7 54 23 133
56 265 66 262 81 422 59 595 -15 116 -29 207 -40 255 -28 119 -62 260 -75 305
-7 28 -25 92 -39 144 -14 51 -30 108 -36 125 -5 17 -17 58 -26 91 -25 94 -42
153 -70 250 -14 50 -31 108 -36 130 -6 22 -15 44 -19 49 -5 6 -9 18 -9 27 0
25 -157 499 -176 533 -48 84 -139 116 -223 80z"/>
</g>
</svg>
