<?xml version="1.0" standalone="no"?>
<!DOCTYPE svg PUBLIC "-//W3C//DTD SVG 20010904//EN"
 "http://www.w3.org/TR/2001/REC-SVG-20010904/DTD/svg10.dtd">
<svg version="1.0" xmlns="http://www.w3.org/2000/svg"
 width="675.000000pt" height="675.000000pt" viewBox="0 0 675.000000 675.000000"
 preserveAspectRatio="xMidYMid meet">
<metadata>
Created by potrace 1.10, written by Peter Selinger 2001-2011
</metadata>
<g transform="translate(0.000000,675.000000) scale(0.100000,-0.100000)"
fill="#000000" stroke="none">
<path d="M3657 6493 c-33 -32 -37 -42 -37 -88 0 -40 6 -61 28 -92 37 -54 51
-76 59 -93 3 -8 18 -31 33 -50 15 -19 30 -42 33 -50 4 -8 16 -28 27 -45 11
-16 23 -37 26 -45 4 -8 12 -22 19 -30 7 -8 20 -40 30 -70 14 -41 32 -68 74
-109 31 -29 71 -60 89 -67 17 -8 32 -18 32 -22 0 -4 19 -18 43 -30 23 -12 56
-31 72 -42 17 -11 37 -22 45 -26 8 -3 22 -9 30 -14 23 -14 186 -94 265 -130
39 -18 103 -48 143 -66 40 -19 78 -34 84 -34 6 0 19 -6 27 -14 9 -7 43 -28 76
-46 33 -18 67 -39 76 -46 8 -8 19 -14 22 -14 15 0 196 -142 252 -197 63 -63
66 -67 137 -233 9 -19 19 -50 22 -67 4 -18 12 -35 17 -38 5 -4 9 -16 9 -28 0
-12 7 -35 15 -51 8 -15 15 -40 15 -55 0 -15 7 -36 15 -47 8 -10 15 -37 15 -59
0 -22 7 -51 15 -65 8 -14 14 -38 15 -54 0 -17 7 -57 15 -90 8 -34 20 -110 26
-171 6 -60 14 -141 18 -180 4 -38 13 -83 19 -98 7 -16 12 -43 12 -62 0 -19 5
-46 11 -62 11 -29 32 -136 50 -258 6 -38 15 -74 20 -79 5 -6 9 -28 9 -50 1
-23 7 -59 15 -81 8 -22 15 -54 15 -70 0 -17 5 -46 11 -65 12 -42 36 -178 48
-275 5 -38 14 -83 20 -98 6 -16 11 -52 11 -80 0 -29 8 -81 16 -117 21 -82 24
-497 5 -605 -7 -38 -16 -120 -20 -181 -4 -61 -12 -117 -16 -124 -5 -8 -12 -57
-16 -109 -9 -118 -34 -310 -48 -371 -6 -25 -11 -67 -11 -95 0 -27 -7 -68 -15
-90 -8 -22 -14 -60 -15 -85 0 -25 -7 -63 -15 -85 -8 -22 -14 -58 -15 -80 0
-22 -7 -71 -15 -110 -9 -38 -23 -104 -31 -145 -9 -41 -21 -91 -27 -110 -10
-33 -21 -84 -33 -155 -6 -32 26 -91 56 -105 8 -4 25 -12 37 -19 51 -26 145 32
158 97 3 15 10 41 16 57 6 17 15 50 20 75 16 89 31 156 45 204 8 26 14 63 14
81 0 17 4 45 10 61 5 16 14 61 19 99 11 86 28 191 43 270 6 33 14 92 18 130 4
39 12 97 18 130 9 51 33 246 46 380 14 136 29 263 41 355 17 119 19 301 5 405
-6 39 -15 111 -20 160 -6 50 -15 115 -20 145 -17 96 -31 183 -40 252 -5 37
-13 76 -19 87 -6 11 -11 37 -11 59 0 21 -6 61 -14 88 -8 27 -18 75 -21 107 -4
31 -11 60 -16 63 -5 3 -9 21 -9 40 0 20 -6 63 -14 97 -18 75 -34 154 -45 224
-5 28 -14 66 -19 85 -21 68 -42 208 -42 275 0 38 -7 95 -15 126 -8 32 -15 76
-15 99 0 22 -6 61 -14 87 -8 25 -19 69 -24 96 -6 28 -18 75 -27 105 -9 30 -21
74 -25 97 -5 23 -14 50 -19 60 -5 10 -19 47 -31 83 -11 36 -25 76 -31 90 -6
14 -17 40 -25 58 -48 115 -104 196 -198 285 -57 55 -223 185 -256 200 -8 4
-28 16 -45 27 -16 11 -39 24 -50 30 -11 6 -42 24 -70 40 -69 42 -275 140 -293
140 -10 0 -265 129 -276 141 -6 5 -18 9 -28 9 -10 0 -18 4 -18 8 0 5 -25 22
-55 38 -91 48 -95 50 -131 85 -19 18 -34 40 -34 50 0 19 -90 188 -126 236 -13
17 -24 34 -24 37 0 14 -87 133 -122 167 -35 34 -46 39 -88 39 -40 0 -51 -5
-83 -37z"/>
<path d="M1819 6477 c-40 -33 -55 -84 -41 -140 7 -25 12 -61 12 -80 0 -19 6
-57 14 -83 8 -27 19 -71 26 -99 32 -143 51 -194 91 -250 64 -89 160 -98 324
-30 17 6 87 40 156 74 135 67 169 72 169 26 0 -14 9 -42 20 -63 11 -22 18 -46
15 -54 -6 -14 -74 -77 -159 -149 -16 -13 -37 -31 -46 -39 -9 -8 -49 -44 -90
-80 -41 -35 -100 -88 -131 -116 -31 -28 -76 -61 -99 -73 -77 -40 -200 -141
-260 -214 -50 -60 -101 -148 -165 -287 -22 -48 -65 -210 -73 -275 -2 -22 -16
-58 -30 -80 -15 -22 -42 -69 -60 -105 -19 -36 -46 -83 -61 -105 -15 -22 -37
-60 -50 -85 -12 -25 -31 -58 -41 -75 -11 -16 -31 -52 -46 -80 -14 -27 -41 -77
-59 -110 -31 -56 -50 -92 -150 -280 -47 -90 -65 -138 -75 -203 -14 -90 13
-249 48 -284 7 -7 12 -19 12 -28 0 -23 117 -158 185 -213 62 -50 189 -137 201
-137 3 0 19 -10 36 -21 28 -20 29 -25 25 -73 -8 -77 -37 -187 -73 -274 -8 -18
-14 -41 -14 -50 0 -10 -5 -23 -11 -29 -6 -6 -14 -35 -19 -64 -5 -30 -16 -83
-25 -119 -16 -62 -23 -95 -46 -220 -6 -30 -14 -94 -19 -142 -4 -47 -12 -92
-16 -100 -5 -7 -10 -269 -10 -583 -1 -473 -4 -587 -18 -669 -9 -55 -16 -127
-16 -161 0 -54 3 -64 27 -86 44 -40 95 -53 135 -35 18 8 41 21 50 29 30 24 49
99 58 232 5 72 14 177 19 235 6 59 9 310 8 575 -2 418 0 481 16 565 54 282 76
387 89 425 5 17 12 41 15 55 3 14 11 39 19 57 8 17 14 37 14 45 0 8 5 19 12
26 6 6 15 30 19 54 4 24 13 63 19 88 26 102 31 138 40 283 6 84 15 188 22 232
7 54 11 302 10 753 0 560 2 680 14 714 8 22 14 55 14 73 0 18 7 46 15 61 8 16
15 36 15 45 0 16 8 34 64 148 39 80 181 229 244 256 23 11 42 22 42 27 0 4 5
8 11 8 10 0 58 38 163 130 29 25 78 68 111 95 32 28 89 77 125 110 36 33 110
98 164 145 54 47 119 105 144 130 26 25 97 89 157 144 61 54 124 111 141 127
34 31 69 118 53 133 -5 6 -9 17 -9 26 0 9 -13 29 -30 45 -25 24 -37 28 -84 28
-62 0 -63 -1 -195 -123 -47 -43 -99 -91 -114 -105 -38 -34 -55 -32 -73 13 -9
20 -20 44 -25 52 -5 8 -12 22 -15 30 -33 85 -57 121 -91 135 -63 27 -103 19
-190 -37 -60 -39 -279 -148 -297 -148 -5 0 -17 -7 -26 -15 -21 -19 -49 -10
-54 19 -9 49 -38 184 -47 221 -6 22 -14 67 -18 99 -6 52 -12 63 -46 93 -33 28
-46 33 -89 33 -38 -1 -58 -7 -77 -23z m-240 -2756 c1 -175 -6 -342 -25 -613
-5 -67 -10 -88 -21 -88 -36 0 -206 156 -235 215 -8 17 -22 44 -32 62 -9 17
-16 42 -16 55 0 22 62 151 147 308 22 41 55 103 73 138 18 34 36 65 41 68 5 3
9 12 9 20 0 20 43 56 51 42 4 -5 7 -98 8 -207z"/>
<path d="M3765 5245 c-24 -23 -25 -30 -25 -142 0 -65 -7 -194 -15 -288 -8 -93
-15 -213 -15 -265 0 -52 -5 -129 -11 -170 -6 -41 -14 -151 -19 -245 -11 -234
-28 -439 -45 -570 -9 -60 -15 -133 -15 -160 0 -28 -7 -82 -15 -120 -8 -39 -15
-91 -15 -117 0 -26 -5 -68 -12 -93 -10 -38 -10 -50 5 -80 16 -34 20 -36 50
-30 17 4 32 8 33 9 22 30 38 90 45 171 5 55 13 123 18 150 6 28 10 75 10 106
1 31 8 100 16 155 8 54 15 133 15 174 0 41 5 95 11 120 6 25 15 122 20 215 5
94 13 222 18 285 5 63 10 167 11 230 0 63 5 135 10 160 5 25 12 145 16 267 7
207 6 224 -11 243 -24 27 -51 25 -80 -5z"/>
<path d="M5225 4438 c-11 -6 -27 -14 -35 -18 -29 -13 -53 -95 -71 -245 -4 -33
-11 -78 -17 -100 -6 -22 -18 -76 -28 -120 -20 -93 -67 -241 -93 -293 -4 -9
-16 -33 -25 -52 -9 -19 -49 -74 -89 -121 -40 -48 -85 -103 -102 -124 -46 -56
-166 -231 -216 -313 -24 -40 -52 -85 -61 -100 -38 -60 -191 -360 -226 -442 -8
-19 -21 -47 -29 -62 -7 -14 -13 -34 -13 -45 0 -10 -7 -27 -15 -37 -8 -11 -15
-27 -15 -37 0 -9 -7 -30 -15 -45 -8 -16 -15 -36 -15 -45 0 -8 -5 -20 -11 -26
-6 -6 -14 -26 -19 -44 -5 -19 -26 -81 -48 -139 -70 -189 -72 -197 -72 -320 1
-74 6 -129 15 -155 8 -22 15 -50 15 -63 0 -38 35 -104 87 -161 45 -51 156
-138 307 -241 214 -146 388 -300 449 -397 91 -145 119 -231 137 -428 10 -109
11 -110 46 -142 20 -17 49 -35 65 -38 33 -8 86 15 120 51 23 24 24 33 23 138
-1 114 -23 247 -50 299 -8 16 -14 34 -14 41 0 6 -19 49 -41 95 -38 76 -41 86
-31 119 6 21 13 48 16 62 3 14 10 50 17 80 6 30 17 77 25 104 8 26 14 68 14
91 0 24 6 74 14 112 15 76 32 362 28 493 -11 396 -28 544 -84 705 -5 17 -14
49 -19 73 -5 23 -13 51 -19 61 -5 11 -10 29 -10 40 0 11 -6 35 -14 53 -20 49
-37 98 -47 141 -5 21 -13 45 -18 55 -5 9 -19 51 -31 92 -13 41 -27 79 -31 85
-5 5 -9 19 -9 31 0 13 -4 26 -10 29 -19 11 -10 46 22 91 17 24 35 44 40 44 4
0 8 5 8 11 0 6 26 39 58 74 69 76 148 226 179 340 3 11 11 34 19 52 8 17 14
41 14 53 0 12 5 31 12 43 6 12 15 42 19 67 7 48 22 122 45 235 21 103 21 218
0 250 -27 41 -112 66 -151 43z m-434 -1594 c7 -39 20 -81 45 -142 8 -18 14
-40 14 -50 0 -9 7 -30 15 -46 8 -15 15 -40 15 -55 0 -14 7 -39 15 -55 8 -15
15 -34 15 -42 0 -7 12 -48 26 -91 33 -98 63 -391 64 -613 0 -156 -18 -379 -45
-545 -8 -49 -16 -103 -17 -119 -2 -16 -8 -31 -14 -33 -7 -2 -34 14 -60 37 -27
22 -55 46 -63 52 -38 31 -271 199 -309 223 -71 44 -178 131 -193 159 -20 35
-38 189 -28 247 11 66 39 157 56 184 7 11 13 27 13 36 0 9 7 30 15 45 8 16 15
36 15 44 0 8 7 24 15 34 8 11 15 28 15 37 0 10 6 30 14 46 8 15 22 48 31 73
40 106 48 127 63 160 8 19 19 42 24 50 4 8 11 22 14 30 19 46 77 155 181 342
27 50 56 47 64 -8z"/>
<path d="M2570 4233 c-49 -34 -59 -55 -60 -120 0 -34 6 -82 14 -105 8 -24 17
-68 20 -98 3 -30 10 -77 16 -105 5 -27 9 -111 9 -186 1 -129 -8 -199 -41 -329
-6 -25 -15 -67 -19 -95 -5 -27 -15 -81 -23 -120 -9 -38 -20 -95 -27 -125 -6
-30 -17 -75 -25 -100 -8 -25 -14 -60 -14 -78 0 -18 -5 -43 -11 -54 -6 -11 -15
-44 -19 -72 -5 -28 -13 -69 -18 -91 -6 -22 -18 -78 -27 -125 -9 -47 -21 -100
-26 -117 -6 -18 -14 -54 -19 -80 -19 -101 -32 -160 -46 -220 -8 -34 -14 -76
-14 -95 0 -18 -7 -55 -15 -82 -8 -27 -15 -65 -15 -83 0 -19 -5 -43 -10 -54 -6
-10 -13 -49 -17 -87 -3 -37 -10 -75 -15 -85 -5 -10 -14 -53 -19 -95 -5 -42
-16 -111 -25 -152 -8 -41 -20 -102 -26 -135 -6 -33 -17 -77 -24 -98 -8 -20
-14 -51 -14 -68 0 -17 -6 -51 -14 -77 -8 -26 -22 -83 -31 -127 -10 -44 -24
-94 -31 -112 -8 -17 -14 -44 -14 -61 0 -16 -7 -43 -15 -58 -8 -16 -15 -40 -15
-53 0 -25 -22 -106 -46 -174 -8 -20 -14 -50 -14 -66 0 -39 38 -93 82 -114 70
-35 155 15 178 106 6 23 16 56 22 72 6 17 13 46 15 65 3 19 11 49 19 67 8 17
14 44 14 60 1 15 7 39 15 53 8 14 15 41 15 60 0 19 7 44 15 54 8 11 15 33 15
50 0 16 6 52 14 80 20 70 46 190 46 212 0 11 7 37 15 59 8 22 14 60 15 86 0
25 4 49 9 55 5 5 14 41 20 79 6 39 18 106 25 150 8 44 19 112 26 150 6 39 18
99 26 135 8 36 14 77 14 92 0 15 5 39 11 55 6 15 14 55 19 88 12 77 29 161 42
203 5 19 13 57 18 85 4 29 12 73 19 100 6 26 16 68 22 95 7 26 16 67 20 92 23
126 37 188 43 199 5 7 11 36 16 64 4 29 12 72 18 97 6 25 18 81 28 125 9 44
22 102 30 129 8 26 14 64 14 83 0 19 5 44 12 56 41 77 40 581 -1 690 -6 16
-11 43 -11 61 0 33 -20 101 -42 144 -28 55 -119 79 -168 45z"/>
<path d="M3378 4018 c-14 -13 -40 -45 -59 -73 -19 -27 -40 -56 -46 -63 -7 -7
-28 -36 -47 -65 -19 -29 -43 -61 -53 -72 -10 -11 -29 -36 -43 -55 -13 -19 -27
-37 -30 -40 -23 -19 -50 -73 -50 -99 0 -33 22 -51 64 -51 20 0 40 20 102 103
43 56 80 104 83 107 3 3 17 21 31 40 13 19 28 40 32 45 55 67 110 150 114 172
6 32 -25 73 -55 73 -10 0 -29 -10 -43 -22z"/>
<path d="M3911 4013 c-21 -27 -22 -68 -3 -83 9 -7 31 -41 38 -60 3 -8 10 -22
15 -30 5 -8 21 -37 34 -65 14 -27 41 -77 60 -110 19 -33 39 -72 46 -87 6 -16
15 -28 19 -28 5 0 10 -9 12 -21 2 -11 15 -28 31 -37 25 -15 29 -15 55 0 31 19
42 70 20 96 -14 18 -29 44 -100 182 -25 47 -56 104 -71 127 -15 24 -27 47 -27
51 0 5 -14 28 -30 50 -36 50 -66 55 -99 15z"/>
<path d="M3483 2318 c-26 -41 -34 -70 -43 -151 -6 -49 -13 -94 -16 -98 -21
-35 8 -497 35 -547 6 -11 11 -32 11 -45 0 -14 7 -30 15 -37 8 -7 15 -20 15
-29 0 -20 53 -127 75 -151 8 -9 15 -20 15 -24 0 -5 23 -35 51 -67 61 -70 90
-81 125 -48 38 35 34 45 -63 170 -51 66 -113 188 -113 223 0 14 -6 40 -14 58
-19 44 -40 204 -40 303 0 87 18 269 36 353 11 49 10 54 -12 77 -25 27 -64 33
-77 13z"/>
<path d="M3906 838 c-22 -30 -20 -41 10 -85 14 -21 30 -47 35 -58 5 -11 13
-27 18 -35 7 -14 23 -48 56 -125 34 -80 46 -130 49 -208 5 -105 15 -127 60
-127 39 0 51 12 60 61 8 44 -11 220 -24 233 -6 6 -10 19 -10 29 0 16 -98 224
-148 314 -18 32 -84 33 -106 1z"/>
</g>
</svg>
