<?xml version="1.0" standalone="no"?>
<!DOCTYPE svg PUBLIC "-//W3C//DTD SVG 20010904//EN"
 "http://www.w3.org/TR/2001/REC-SVG-20010904/DTD/svg10.dtd">
<svg version="1.0" xmlns="http://www.w3.org/2000/svg"
 width="900.000000pt" height="900.000000pt" viewBox="0 0 900.000000 900.000000"
 preserveAspectRatio="xMidYMid meet">
<metadata>
Created by potrace 1.10, written by Peter Selinger 2001-2011
</metadata>
<g transform="translate(0.000000,900.000000) scale(0.100000,-0.100000)"
fill="#000000" stroke="none">
<path d="M4990 7939 c-276 -24 -500 -151 -621 -350 -85 -141 -113 -265 -108
-483 l4 -149 -80 -26 c-159 -51 -312 -140 -425 -245 -143 -134 -254 -306 -304
-471 -10 -33 -23 -71 -28 -84 -5 -13 -12 -60 -15 -105 -3 -45 -10 -87 -16 -93
-7 -10 -53 -13 -166 -13 -226 0 -378 -25 -576 -93 l-90 -30 -200 2 c-110 2
-243 -2 -295 -8 -52 -6 -135 -16 -185 -21 -49 -5 -130 -17 -180 -25 -49 -9
-116 -20 -148 -26 -33 -5 -64 -12 -69 -15 -6 -4 -41 -13 -77 -20 -36 -7 -102
-20 -146 -29 -44 -10 -141 -21 -215 -25 -144 -8 -200 -23 -260 -68 -60 -44
-110 -110 -150 -197 -12 -27 -28 -61 -34 -75 -7 -14 -21 -52 -31 -85 -10 -33
-21 -69 -26 -80 -21 -51 -41 -210 -41 -320 1 -86 7 -148 23 -220 24 -112 27
-169 11 -300 -28 -239 -35 -421 -28 -777 23 -1274 23 -1291 -29 -1698 -34
-265 -35 -286 -20 -374 23 -143 79 -221 190 -262 46 -18 84 -19 505 -18 415 1
458 2 490 19 83 42 102 78 111 215 4 58 14 209 23 335 8 127 18 251 22 277 9
64 -10 128 -50 166 -33 33 -121 72 -160 72 -50 0 -68 29 -83 136 -48 343 -44
436 26 604 5 14 50 135 99 270 79 215 105 293 166 500 8 25 21 81 29 125 9 44
21 105 27 135 5 30 14 99 19 152 5 54 13 103 17 109 5 9 42 10 138 4 163 -9
380 -10 551 -1 l130 7 50 -43 c80 -68 162 -159 184 -203 11 -22 27 -70 36
-105 99 -410 215 -639 400 -789 180 -146 412 -200 664 -156 172 31 257 72 423
206 l26 22 59 -51 c100 -87 238 -153 360 -173 425 -71 734 81 926 457 65 128
96 216 147 419 18 72 41 146 51 166 25 50 96 131 171 196 l63 55 165 -7 c193
-8 391 -7 581 1 l136 6 6 -33 c3 -19 11 -72 17 -119 18 -127 48 -286 71 -370
11 -41 24 -93 29 -115 6 -22 14 -49 19 -60 5 -11 26 -72 47 -135 20 -63 39
-119 43 -125 3 -5 15 -37 27 -70 12 -33 39 -105 59 -160 123 -337 118 -292 75
-670 -19 -162 -25 -171 -115 -191 -16 -4 -54 -18 -83 -31 -98 -46 -116 -109
-92 -333 5 -47 14 -170 20 -275 11 -211 25 -319 46 -352 7 -12 30 -34 50 -50
l37 -28 286 -10 c287 -10 623 -3 691 15 91 24 167 108 195 215 25 99 21 185
-25 510 -26 184 -29 332 -24 1210 6 905 4 988 -27 1248 -10 85 -9 108 5 165
38 150 41 446 6 557 -5 17 -19 64 -31 105 -12 41 -44 122 -71 180 -40 84 -63
117 -112 165 -83 80 -130 97 -306 106 -74 4 -169 15 -210 24 -41 9 -104 22
-140 29 -36 8 -85 18 -110 24 -25 6 -85 18 -135 27 -49 8 -112 20 -140 25
-110 22 -302 34 -535 36 -205 1 -251 4 -285 18 -66 28 -222 67 -345 87 -127
20 -376 25 -448 9 -66 -16 -78 -4 -86 80 -11 118 -64 292 -119 391 -82 145
-204 287 -326 380 -118 88 -306 173 -432 193 -65 11 -74 31 -77 181 -4 139 3
178 47 264 22 42 83 101 133 127 138 74 370 91 503 37 86 -34 112 -47 153 -74
24 -16 46 -29 49 -29 10 0 149 -116 253 -210 144 -132 281 -243 359 -295 39
-26 69 -51 65 -56 -12 -20 -83 -8 -439 76 -38 9 -92 21 -120 26 -27 5 -78 17
-112 26 -58 15 -66 15 -108 -1 -54 -21 -110 -83 -119 -131 -13 -70 30 -157 94
-190 15 -8 52 -19 81 -24 30 -5 72 -14 94 -20 22 -5 103 -24 180 -41 77 -17
155 -35 172 -41 18 -6 70 -14 115 -19 46 -5 104 -12 129 -16 58 -8 214 11 302
37 197 60 352 184 428 344 34 72 37 123 8 181 -41 85 -120 106 -266 69 -69
-17 -77 -17 -142 -1 -39 9 -89 28 -113 41 -24 14 -50 28 -58 32 -26 11 -161
122 -256 209 -240 219 -416 348 -556 404 -29 12 -62 26 -73 31 -91 40 -279 61
-425 48z m-320 -1336 c204 -58 403 -231 488 -423 57 -129 57 -131 57 -365 -1
-222 -12 -330 -52 -475 -86 -319 -243 -571 -434 -699 -127 -85 -231 -106 -346
-71 -189 57 -351 213 -463 445 -95 195 -137 366 -166 673 -17 174 -17 187 0
285 33 188 94 307 220 432 81 80 170 143 227 160 13 4 29 11 34 15 13 9 130
38 175 44 60 7 202 -4 260 -21z m-1283 -1039 c13 -2 25 -14 27 -27 3 -12 10
-51 16 -87 35 -200 54 -276 102 -410 104 -288 255 -504 457 -654 132 -98 247
-147 404 -172 82 -13 101 -13 192 1 55 9 104 20 110 26 5 5 16 9 25 9 25 0
162 72 231 122 193 139 368 377 469 638 18 47 37 94 41 105 5 11 13 38 18 60
15 60 31 126 42 167 5 20 13 69 18 108 5 40 13 76 18 81 25 25 132 40 291 40
140 -1 168 -3 183 -17 11 -10 19 -22 19 -29 0 -24 60 -94 95 -111 40 -19 90
-16 250 12 140 24 509 30 665 10 165 -22 294 -43 410 -68 52 -11 124 -26 160
-33 36 -7 83 -17 105 -22 75 -20 213 -36 249 -30 59 9 89 -7 118 -66 42 -83
75 -193 93 -312 16 -106 16 -114 -4 -220 -11 -60 -27 -132 -37 -159 -16 -46
-16 -55 0 -155 41 -260 45 -453 34 -1486 -8 -651 -5 -760 27 -1015 8 -63 20
-168 26 -234 12 -113 12 -119 -7 -133 -26 -20 -566 -15 -586 5 -12 12 -19 66
-34 297 -8 115 -7 117 72 139 27 8 72 21 99 29 28 9 84 25 125 37 94 27 132
52 159 107 25 52 26 89 5 144 -20 48 -84 99 -124 99 -48 0 -52 16 -40 147 22
233 23 272 11 335 -17 89 -132 429 -153 452 -4 6 -8 17 -8 25 0 9 -13 48 -29
86 -33 81 -112 315 -134 395 -31 116 -73 341 -82 441 -6 71 0 99 20 99 6 0 31
13 53 30 93 67 96 191 6 270 l-38 33 -105 -6 c-58 -4 -122 -11 -141 -16 -96
-27 -597 -47 -785 -32 -77 6 -196 15 -265 21 -69 5 -168 15 -222 21 -92 11
-98 11 -138 -10 -54 -28 -76 -55 -93 -111 -12 -37 -12 -51 0 -89 7 -25 18 -50
23 -55 19 -19 10 -48 -33 -104 -64 -85 -113 -192 -132 -292 -27 -142 -100
-345 -159 -445 -35 -60 -129 -160 -171 -181 -140 -73 -317 -74 -470 -3 -81 37
-141 111 -181 219 -54 150 -103 194 -207 187 -88 -5 -148 -61 -161 -152 -11
-70 -41 -127 -97 -183 -85 -85 -187 -122 -336 -122 -97 0 -152 13 -232 55 -55
28 -153 143 -193 225 -32 67 -58 129 -58 140 0 5 -4 18 -9 28 -5 9 -17 46 -26
82 -9 36 -23 85 -30 110 -8 25 -17 63 -21 85 -9 55 -56 155 -104 227 l-41 59
36 40 c42 47 55 77 55 127 0 48 -28 99 -75 137 -35 28 -42 30 -119 29 -45 0
-109 -6 -141 -12 -54 -11 -177 -20 -524 -39 -145 -8 -564 20 -711 47 -103 19
-175 16 -214 -11 -74 -50 -99 -156 -55 -229 25 -41 42 -56 86 -75 40 -18 47
-41 34 -108 -6 -28 -13 -79 -17 -112 -11 -97 -52 -291 -78 -370 -7 -22 -21
-65 -31 -95 -21 -67 -73 -214 -90 -255 -7 -16 -20 -52 -30 -80 -10 -27 -24
-64 -31 -82 -8 -17 -14 -36 -14 -42 0 -6 -5 -19 -10 -29 -6 -9 -31 -80 -58
-157 l-47 -140 0 -155 c1 -85 7 -194 14 -242 16 -97 9 -118 -36 -118 -62 0
-128 -65 -139 -136 -15 -103 34 -170 149 -205 40 -12 81 -25 92 -29 11 -5 38
-13 60 -19 171 -44 179 -49 171 -101 -3 -20 -9 -101 -12 -181 -4 -91 -11 -152
-19 -165 -17 -26 -98 -34 -376 -34 -173 0 -199 2 -219 18 l-21 17 15 135 c9
74 21 155 26 180 25 120 31 393 28 1298 -3 920 2 1123 30 1141 19 13 42 76 42
116 0 38 -10 74 -40 140 -61 136 -57 394 7 570 27 72 54 130 72 154 17 22 26
24 117 26 104 3 158 10 314 45 83 19 160 36 250 54 47 10 215 35 340 52 156
20 525 14 665 -10 165 -29 215 -30 260 -4 28 17 49 41 72 83 l32 60 83 5 c87
5 237 2 275 -6z"/>
</g>
</svg>
