<?xml version="1.0" standalone="no"?>
<!DOCTYPE svg PUBLIC "-//W3C//DTD SVG 20010904//EN"
 "http://www.w3.org/TR/2001/REC-SVG-20010904/DTD/svg10.dtd">
<svg version="1.0" xmlns="http://www.w3.org/2000/svg"
 width="900.000000pt" height="900.000000pt" viewBox="0 0 900.000000 900.000000"
 preserveAspectRatio="xMidYMid meet">
<metadata>
Created by potrace 1.10, written by Peter Selinger 2001-2011
</metadata>
<g transform="translate(0.000000,900.000000) scale(0.100000,-0.100000)"
fill="#000000" stroke="none">
<path d="M3470 8985 c0 -9 -14 -16 -37 -20 -53 -9 -137 -32 -208 -57 -33 -11
-80 -28 -105 -36 -76 -27 -320 -155 -426 -224 -140 -91 -169 -104 -252 -112
-40 -3 -91 -11 -115 -16 -23 -5 -76 -17 -117 -25 -41 -9 -95 -22 -120 -29
-125 -37 -196 -60 -205 -67 -5 -5 -16 -9 -25 -9 -22 0 -235 -93 -338 -147
-326 -172 -562 -369 -764 -640 -81 -108 -112 -157 -178 -283 -34 -65 -80 -170
-80 -183 0 -7 -4 -17 -9 -23 -13 -14 -72 -219 -87 -304 -42 -230 -45 -273 -44
-585 0 -170 5 -337 10 -370 12 -75 13 -218 1 -230 -29 -31 -150 -278 -186
-380 -9 -27 -21 -59 -26 -70 -28 -63 -89 -316 -109 -450 -49 -324 -62 -669
-31 -824 6 -30 31 -96 56 -147 56 -112 154 -218 260 -283 39 -23 77 -46 85
-51 72 -45 867 -519 908 -542 63 -34 143 -61 229 -78 59 -12 134 -10 251 6
l42 6 0 -93 c0 -52 -5 -123 -11 -159 -6 -36 -15 -101 -20 -145 -5 -44 -16
-134 -24 -200 -23 -191 -35 -460 -25 -550 22 -189 41 -253 133 -445 62 -129
76 -151 204 -320 286 -376 844 -835 1078 -886 66 -14 2560 -11 2622 3 170 40
541 316 856 638 103 105 278 324 344 430 38 62 123 229 123 244 0 6 6 25 14
43 77 183 90 459 41 848 -7 63 -19 153 -25 200 -5 47 -15 109 -20 139 -6 30
-10 99 -10 154 l0 100 48 -7 c154 -22 241 -16 365 25 72 24 3 -15 631 360 567
339 605 365 686 484 42 61 100 191 100 225 0 41 11 70 26 70 11 0 14 29 14
151 0 94 -4 148 -10 144 -13 -8 -18 19 -30 205 -6 90 -13 167 -16 171 -2 4 -8
40 -14 80 -31 229 -122 524 -220 719 -45 90 -91 174 -101 185 -12 12 -11 155
1 230 16 99 13 664 -4 775 -28 184 -46 266 -79 375 -72 235 -158 402 -308 600
-209 277 -434 466 -761 638 -103 54 -316 147 -338 147 -9 0 -20 4 -25 9 -9 7
-80 30 -205 67 -25 7 -79 20 -120 29 -41 8 -95 20 -120 26 -25 6 -76 13 -115
16 -80 7 -111 20 -248 111 -104 68 -350 197 -427 224 -25 8 -72 25 -105 36
-71 25 -155 48 -207 57 -24 4 -38 11 -38 20 0 13 -134 15 -1020 15 -886 0
-1020 -2 -1020 -15z m2111 -716 c52 -17 137 -53 189 -80 99 -52 335 -212 353
-240 7 -12 -3 -31 -44 -83 -68 -85 -132 -201 -159 -291 -12 -38 -27 -83 -32
-100 -6 -16 -13 -100 -15 -187 -6 -154 -5 -157 26 -260 18 -56 36 -114 42
-127 5 -13 27 -76 49 -140 72 -214 91 -266 121 -341 49 -121 52 -127 149 -324
106 -216 194 -342 286 -411 56 -42 167 -93 250 -114 21 -6 82 -22 134 -36 52
-14 106 -25 120 -25 14 0 59 -7 100 -16 86 -18 485 -25 658 -11 l102 9 21 -44
c11 -24 25 -52 32 -63 20 -32 61 -99 74 -120 57 -95 120 -241 155 -360 49
-167 58 -212 78 -370 14 -107 34 -450 28 -466 -5 -12 -221 -148 -322 -203 -21
-11 -83 -49 -121 -74 -11 -6 -29 -16 -40 -21 -11 -5 -36 -20 -55 -33 -19 -13
-42 -27 -50 -31 -8 -4 -28 -16 -45 -27 -16 -11 -39 -24 -50 -29 -11 -5 -37
-21 -58 -35 -21 -14 -40 -26 -42 -26 -2 0 -46 -25 -96 -55 -107 -63 -105 -63
-178 27 -130 161 -241 502 -291 893 -14 109 -38 247 -45 253 -3 3 -5 -10 -6
-29 -1 -65 -18 -195 -39 -304 -12 -60 -26 -132 -31 -160 -12 -72 -33 -157 -63
-260 -14 -49 -33 -117 -43 -150 -9 -33 -20 -64 -23 -70 -4 -5 -19 -46 -33 -90
-26 -80 -37 -111 -77 -215 -22 -57 -39 -109 -83 -245 -24 -73 -34 -120 -57
-260 -12 -71 -11 -277 1 -360 5 -38 17 -124 25 -190 9 -66 22 -169 30 -230 8
-60 17 -186 20 -278 6 -154 4 -174 -15 -235 -49 -155 -158 -309 -366 -518
-149 -150 -233 -224 -396 -347 l-115 -87 -1142 0 c-1065 0 -1145 1 -1170 17
-15 10 -29 20 -32 23 -3 3 -45 37 -95 75 -130 100 -214 174 -351 310 -218 217
-328 372 -379 536 -28 92 -16 342 34 699 39 279 43 326 38 463 -3 89 -12 176
-25 232 -22 96 -86 304 -121 395 -51 129 -138 387 -166 490 -9 36 -23 83 -30
105 -7 22 -21 78 -30 125 -9 47 -23 114 -30 150 -28 133 -44 237 -51 323 -3
48 -8 86 -10 84 -5 -5 -31 -159 -44 -262 -47 -361 -143 -673 -259 -843 -39
-57 -98 -122 -110 -122 -4 0 -161 92 -350 205 -188 113 -344 205 -346 205 -2
0 -23 13 -47 29 -43 28 -103 64 -168 100 -72 39 -72 37 -60 232 15 244 37 418
65 519 9 30 23 80 31 110 42 149 83 241 181 407 40 67 82 141 93 163 l21 41
92 -8 c158 -14 571 -7 657 11 41 9 86 16 100 16 14 0 68 11 120 25 52 14 113
30 134 36 83 21 194 72 250 114 92 69 180 195 286 411 97 197 100 203 149 324
30 75 49 127 121 341 22 64 44 127 49 140 6 13 24 71 42 127 31 103 32 105 26
260 -6 150 -10 174 -51 305 -21 66 -89 189 -143 260 -24 31 -43 65 -41 74 9
50 421 290 578 338 30 9 66 21 80 25 14 5 460 9 991 9 l966 1 94 -31z"/>
</g>
</svg>
