<?xml version="1.0" standalone="no"?>
<!DOCTYPE svg PUBLIC "-//W3C//DTD SVG 20010904//EN"
 "http://www.w3.org/TR/2001/REC-SVG-20010904/DTD/svg10.dtd">
<svg version="1.0" xmlns="http://www.w3.org/2000/svg"
 width="900.000000pt" height="900.000000pt" viewBox="0 0 900.000000 900.000000"
 preserveAspectRatio="xMidYMid meet">
<metadata>
Created by potrace 1.10, written by Peter Selinger 2001-2011
</metadata>
<g transform="translate(0.000000,900.000000) scale(0.100000,-0.100000)"
fill="#000000" stroke="none">
<path d="M5613 8300 c-31 -13 -56 -66 -49 -103 3 -16 21 -55 40 -86 137 -228
206 -422 245 -684 38 -254 25 -544 -35 -755 -35 -125 -113 -297 -163 -361 -16
-20 -36 -50 -44 -68 -25 -47 -127 -173 -226 -276 -95 -100 -110 -131 -86 -176
39 -77 116 -80 184 -8 42 46 49 29 43 -116 -5 -144 10 -390 34 -532 8 -49 24
-146 35 -215 12 -69 29 -168 39 -220 31 -160 50 -272 60 -351 5 -42 14 -107
21 -145 19 -114 16 -586 -5 -724 -48 -313 -115 -546 -227 -789 -33 -71 -41
-82 -54 -71 -12 10 -15 47 -15 219 0 227 -29 614 -56 756 -14 71 -23 95 -45
117 -36 37 -86 38 -128 2 -37 -31 -40 -65 -16 -190 69 -375 55 -1237 -30
-1804 -8 -52 -17 -115 -20 -140 -18 -137 -88 -499 -137 -712 -32 -137 -10
-193 77 -193 62 0 87 27 108 117 97 409 183 937 216 1315 l8 92 56 69 c270
335 441 841 479 1419 17 267 -5 570 -67 923 -20 114 -49 279 -74 420 -48 270
-56 349 -56 585 1 201 4 244 24 345 28 137 42 176 126 341 129 253 183 467
192 764 9 263 -24 496 -105 750 -50 155 -191 429 -245 474 -20 16 -77 23 -104
11z"/>
<path d="M1562 8024 c-60 -25 -73 -86 -51 -254 5 -46 11 -131 13 -189 3 -96
13 -150 46 -251 7 -19 16 -48 22 -65 10 -31 42 -125 63 -185 7 -19 21 -62 30
-95 10 -33 23 -76 30 -95 12 -34 31 -95 62 -210 31 -110 58 -171 103 -230 41
-53 63 -193 58 -356 -5 -150 -27 -227 -121 -424 -46 -98 -77 -169 -163 -368
-8 -18 -14 -38 -14 -45 0 -7 -12 -30 -27 -52 -17 -25 -31 -66 -40 -114 -17
-100 -27 -144 -51 -216 -11 -33 -28 -105 -37 -160 -9 -55 -27 -165 -40 -245
-14 -80 -29 -190 -35 -245 -6 -55 -15 -134 -21 -175 -33 -246 -35 -849 -4
-1080 30 -220 79 -464 122 -610 87 -298 197 -559 324 -770 106 -177 114 -210
164 -685 18 -173 27 -200 68 -221 53 -28 105 -7 137 54 20 41 -50 613 -94 761
-7 26 -39 86 -71 134 -63 98 -136 234 -184 347 -18 41 -38 89 -46 105 -32 73
-135 397 -135 423 0 9 -7 38 -15 66 -17 60 -47 230 -72 406 -29 199 -26 805 5
1075 78 682 162 1004 396 1503 139 299 169 437 147 685 -15 164 -29 221 -79
319 -36 70 -50 110 -99 278 -30 104 -46 155 -58 190 -7 19 -21 62 -30 95 -10
33 -23 76 -30 95 -7 19 -19 58 -28 85 -14 47 -24 83 -61 215 -20 73 -33 169
-42 310 -4 63 -12 126 -19 140 -28 55 -74 75 -123 54z"/>
<path d="M7618 6608 c-36 -46 -54 -74 -65 -98 -4 -8 -39 -69 -78 -135 -39 -66
-74 -127 -78 -135 -4 -8 -16 -28 -27 -45 -11 -16 -23 -37 -27 -45 -4 -8 -39
-69 -78 -135 -39 -66 -74 -127 -78 -135 -4 -8 -16 -28 -27 -45 -11 -16 -23
-37 -27 -45 -4 -8 -39 -69 -78 -135 -39 -66 -74 -127 -78 -135 -4 -8 -16 -28
-27 -45 -11 -16 -23 -37 -27 -45 -4 -8 -39 -69 -78 -135 -39 -66 -74 -127 -78
-135 -4 -8 -16 -28 -27 -45 -11 -16 -24 -39 -30 -50 -5 -11 -14 -27 -20 -35
-15 -22 -125 -212 -133 -230 -4 -8 -16 -28 -27 -45 -11 -16 -24 -39 -30 -50
-6 -11 -16 -29 -23 -40 -7 -11 -36 -62 -65 -112 -54 -94 -68 -111 -80 -98 -4
4 -10 59 -13 123 -6 110 -15 210 -40 447 -6 55 -15 156 -20 225 -5 69 -15 178
-22 243 -12 106 -16 121 -40 145 -23 22 -36 27 -77 27 -44 0 -53 -4 -75 -30
-21 -26 -24 -40 -25 -110 0 -44 6 -141 15 -215 8 -74 21 -216 30 -315 8 -99
22 -243 30 -320 8 -77 15 -165 15 -195 0 -30 7 -100 15 -155 8 -55 15 -130 15
-167 0 -78 21 -140 55 -162 30 -20 108 -21 124 -2 11 13 79 27 296 61 128 20
280 45 350 57 33 6 89 14 125 18 36 5 90 13 120 19 30 6 102 17 160 26 137 21
276 43 375 61 44 8 89 14 100 14 39 1 95 66 95 112 0 18 -12 39 -35 63 -42 41
-69 44 -199 20 -44 -8 -126 -22 -181 -30 -141 -23 -275 -44 -382 -61 -51 -8
-136 -21 -188 -29 -52 -9 -139 -22 -192 -31 -54 -8 -132 -21 -173 -29 -45 -8
-79 -10 -84 -4 -10 9 13 59 54 124 11 17 24 39 30 50 5 11 14 27 20 35 15 23
155 263 163 280 4 8 16 29 27 45 11 17 23 37 27 45 4 8 39 69 78 135 39 66 74
127 78 135 4 8 16 29 27 45 11 17 24 39 30 50 6 11 16 29 23 40 7 11 37 63 67
115 30 52 60 104 67 115 7 11 17 29 23 40 6 11 19 34 30 50 11 17 23 37 27 45
4 8 32 58 63 110 31 52 59 102 63 110 4 8 16 29 27 45 11 17 24 39 30 50 6 11
16 29 23 40 7 11 37 63 67 115 30 52 60 104 67 115 7 11 17 29 23 40 6 11 19
34 30 50 11 17 23 37 27 45 4 8 26 47 48 85 60 101 69 133 50 178 -18 44 -40
57 -99 57 -41 0 -48 -4 -78 -42z"/>
<path d="M3680 5653 c-170 -101 -372 -273 -468 -397 -28 -37 -46 -29 -66 31
-37 104 -80 177 -117 197 -59 32 -125 1 -135 -65 -5 -28 2 -52 30 -112 72
-152 85 -313 47 -612 -33 -266 -30 -504 10 -733 15 -82 50 -122 106 -122 21 0
46 7 55 14 21 16 51 83 43 96 -3 5 -13 67 -22 137 -28 230 -17 551 23 656 8
20 14 51 14 68 0 53 66 188 145 294 89 119 235 249 405 360 101 65 125 107 96
164 -31 58 -93 67 -166 24z"/>
<path d="M4699 5221 c-32 -32 -37 -68 -19 -131 17 -59 41 -381 35 -460 -18
-230 -29 -315 -51 -408 -53 -229 -117 -376 -229 -527 -61 -83 -131 -150 -238
-229 -86 -63 -199 -172 -228 -220 -34 -56 -15 -123 40 -146 48 -20 80 -4 161
79 41 43 118 110 172 149 255 190 428 477 510 847 29 131 58 401 58 540 0 135
-32 431 -50 467 -40 76 -107 92 -161 39z"/>
<path d="M3688 2430 l-30 -31 5 -167 c4 -159 7 -175 51 -347 26 -99 52 -199
57 -223 14 -67 37 -108 73 -127 40 -22 73 -15 109 21 34 33 35 72 6 174 -12
41 -27 100 -35 130 -7 30 -25 102 -38 160 -19 78 -27 142 -30 245 l-5 140 -31
28 c-43 38 -92 37 -132 -3z"/>
</g>
</svg>
