<?xml version="1.0" standalone="no"?>
<!DOCTYPE svg PUBLIC "-//W3C//DTD SVG 20010904//EN"
 "http://www.w3.org/TR/2001/REC-SVG-20010904/DTD/svg10.dtd">
<svg version="1.0" xmlns="http://www.w3.org/2000/svg"
 width="900.000000pt" height="480.000000pt" viewBox="0 0 900.000000 480.000000"
 preserveAspectRatio="xMidYMid meet">
<metadata>
Created by potrace 1.10, written by Peter Selinger 2001-2011
</metadata>
<g transform="translate(0.000000,480.000000) scale(0.100000,-0.100000)"
fill="#000000" stroke="none">
<path d="M2355 3964 c-355 -47 -630 -163 -666 -282 -16 -56 2 -266 28 -318 6
-11 10 -68 11 -127 l1 -108 -29 -10 c-16 -6 -31 -17 -34 -25 -3 -8 -19 -14
-35 -14 -17 0 -45 -6 -63 -14 -18 -8 -60 -22 -93 -31 -411 -115 -666 -258
-721 -406 -12 -30 -17 -74 -17 -139 1 -83 4 -100 26 -140 21 -35 25 -53 20
-86 -7 -55 14 -167 42 -224 26 -51 109 -116 185 -143 91 -33 248 -75 345 -93
119 -22 479 -24 660 -5 61 7 153 16 205 21 52 4 102 11 110 14 39 16 359 37
570 38 418 1 815 -46 1190 -141 75 -19 298 -101 360 -131 36 -18 75 -36 87
-41 13 -5 70 -35 129 -69 59 -33 109 -60 111 -60 2 0 23 -13 46 -29 70 -48
369 -216 505 -285 51 -25 100 -50 110 -56 31 -17 227 -103 252 -111 14 -4 63
-22 110 -39 165 -61 220 -80 233 -80 7 0 46 -11 87 -24 520 -166 837 -213
1065 -157 204 50 299 88 391 157 52 39 125 118 145 156 13 24 16 107 6 190 -6
57 -6 57 39 110 52 60 60 77 79 168 8 36 19 79 25 95 7 17 12 66 12 110 -1 72
-5 89 -36 155 -20 41 -46 89 -59 105 -12 17 -39 54 -61 83 -46 63 -195 191
-310 266 -98 64 -249 146 -269 146 -9 0 -28 6 -44 14 -15 8 -39 19 -53 24 -14
6 -47 20 -74 31 -27 12 -57 21 -68 21 -10 0 -30 7 -43 16 -25 16 -64 16 -68
-1 -1 -5 12 -11 30 -13 17 -2 37 -10 43 -18 7 -8 25 -14 40 -14 25 0 57 -12
110 -42 8 -4 22 -11 30 -14 8 -3 22 -10 30 -15 8 -5 26 -14 40 -19 44 -18 75
-32 90 -41 8 -5 24 -14 35 -19 19 -10 139 -95 243 -173 84 -63 212 -220 247
-302 9 -22 24 -76 34 -120 16 -78 16 -81 -5 -141 -25 -72 -79 -155 -105 -161
-11 -3 -19 -9 -19 -14 0 -5 -5 -9 -12 -9 -9 0 -9 3 0 12 7 7 12 22 12 35 0 18
-6 23 -26 23 l-26 0 7 114 c7 108 2 153 -14 127 -4 -6 -22 -8 -43 -5 -35 6
-36 7 -53 83 -10 42 -22 81 -27 87 -4 6 -6 19 -2 27 3 9 -3 28 -15 43 -23 29
-28 51 -8 34 6 -5 24 -20 40 -31 39 -30 107 -133 107 -163 0 -31 20 -35 27 -6
6 22 18 26 28 10 11 -18 25 -10 25 14 0 34 -33 106 -62 136 -13 14 -41 48 -61
77 -21 28 -42 53 -47 55 -5 2 -31 24 -57 49 -26 25 -79 67 -118 94 -38 26 -86
60 -105 74 -31 24 -87 56 -145 84 -11 6 -27 14 -35 19 -16 9 -21 11 -85 35
-22 8 -53 21 -68 29 -16 8 -39 14 -51 14 -12 0 -31 7 -42 15 -10 8 -33 15 -51
15 -17 0 -38 7 -47 15 -8 8 -30 15 -48 15 -18 1 -51 7 -73 15 -22 8 -68 15
-102 15 -34 0 -111 7 -170 16 -90 14 -163 15 -433 11 -179 -3 -368 -11 -420
-17 -141 -17 -835 6 -903 30 -17 5 -69 10 -116 9 -120 -1 -90 -7 309 -60 66
-9 266 -13 665 -14 314 0 575 -4 581 -8 6 -3 53 -11 105 -17 100 -12 109 -14
234 -55 44 -14 103 -32 130 -40 45 -12 94 -26 190 -55 53 -15 119 -40 137 -50
10 -6 23 -10 28 -10 29 0 260 -116 355 -179 88 -57 233 -203 263 -263 36 -73
23 -178 -22 -178 -15 0 -61 -63 -101 -137 -30 -57 -82 -99 -134 -109 l-33 -7
15 30 c9 16 23 35 31 43 9 7 16 24 15 39 -1 14 6 43 15 63 19 44 20 58 5 58
-6 0 -39 25 -72 56 -34 31 -75 63 -92 71 -16 9 -46 28 -65 43 -19 14 -48 31
-65 37 -16 6 -75 30 -130 53 -55 23 -113 46 -130 50 -16 4 -52 16 -80 25 -122
43 -153 53 -195 65 -25 7 -85 25 -135 40 -154 48 -230 63 -385 75 -131 10
-693 13 -750 4 -30 -5 -66 -11 -80 -13 -14 -3 -41 -8 -61 -11 -38 -8 -46 -4
-210 88 -41 23 -102 57 -135 75 -32 18 -71 42 -86 55 -15 12 -41 30 -58 40
-76 42 3 52 205 27 57 -7 189 -11 305 -10 597 6 878 3 940 -9 36 -6 92 -17
125 -22 77 -13 90 -16 145 -27 52 -11 193 -59 232 -79 14 -7 39 -13 55 -13 15
-1 39 -7 53 -15 14 -8 34 -15 45 -15 11 0 43 -12 70 -25 28 -14 58 -25 67 -25
10 0 47 -16 82 -35 36 -19 70 -35 76 -35 6 0 26 -11 44 -25 18 -14 37 -25 43
-25 16 0 139 -87 189 -132 58 -55 96 -136 92 -198 -4 -58 15 -65 25 -8 13 68
1 124 -39 184 -20 30 -39 54 -42 54 -4 0 -27 19 -52 41 -70 62 -208 140 -355
199 -44 18 -93 38 -110 45 -53 22 -132 45 -156 45 -13 1 -35 7 -49 15 -14 8
-36 14 -48 15 -13 0 -36 6 -50 13 -15 8 -42 21 -60 30 -19 9 -42 17 -52 17
-11 0 -39 6 -62 14 -54 16 -191 41 -328 58 -133 16 -476 17 -780 1 -165 -9
-253 -10 -295 -3 -33 6 -107 17 -165 25 -163 22 -244 35 -260 41 -8 4 -44 12
-80 19 -36 7 -90 20 -120 29 -30 9 -84 23 -120 31 -36 8 -96 24 -135 36 -38
11 -86 24 -105 28 -34 7 -81 21 -145 43 -16 5 -47 14 -68 19 -21 5 -45 13 -55
18 -9 5 -45 19 -79 31 -35 13 -63 25 -63 27 0 6 57 -2 125 -17 95 -21 105 -22
121 -16 15 6 15 8 -1 26 -10 11 -26 20 -35 20 -9 0 -21 5 -27 11 -6 6 -64 24
-129 40 -176 44 -184 47 -244 69 -30 12 -129 46 -220 77 -91 30 -169 58 -175
63 -5 4 -35 15 -65 24 -60 18 -86 28 -200 75 -107 43 -293 106 -391 131 -142
35 -192 51 -242 77 -27 13 -71 27 -98 30 -48 6 -68 17 -55 31 4 3 17 0 28 -7
19 -12 24 -11 42 11 69 80 228 137 432 155 127 10 618 -1 664 -15 19 -6 85
-22 145 -37 132 -31 304 -111 385 -178 30 -25 64 -47 75 -49 17 -3 20 3 23 45
2 26 7 47 11 47 10 0 21 -50 21 -93 0 -17 6 -53 14 -81 21 -73 35 -164 46
-294 5 -62 12 -117 15 -122 4 -6 23 -10 43 -10 20 0 77 -13 127 -29 84 -27
136 -42 260 -75 135 -36 358 -76 426 -76 24 0 82 -8 129 -17 75 -15 177 -16
883 -15 440 0 802 3 805 6 3 3 3 9 -1 12 -11 11 -334 23 -752 28 -440 5 -798
19 -929 36 -318 43 -378 55 -541 107 -144 47 -250 108 -320 185 -59 66 -86
125 -104 228 -33 189 -70 318 -104 362 -53 70 -80 98 -129 136 -157 120 -465
226 -763 262 -152 19 -220 20 -340 4z m219 -108 c18 7 151 -9 266 -32 91 -18
228 -60 278 -85 20 -11 44 -19 53 -19 43 0 179 -80 179 -106 0 -8 7 -14 15
-14 8 0 15 -9 15 -20 0 -13 -5 -18 -15 -14 -8 4 -15 10 -15 15 0 5 -15 9 -33
9 -21 0 -41 8 -51 19 -10 11 -36 21 -59 24 -58 8 -123 22 -182 41 -27 9 -106
21 -175 27 -150 13 -643 13 -667 1 -10 -5 -41 -12 -69 -16 -56 -7 -157 -40
-192 -62 -13 -8 -37 -13 -55 -11 -26 2 -33 8 -35 29 -2 20 6 32 35 55 21 16
54 35 73 42 19 8 53 21 75 31 35 15 197 55 325 79 25 5 74 10 110 10 35 1 66
4 68 6 3 2 13 0 23 -5 9 -6 25 -7 33 -4z m-657 -600 c4 -8 19 -16 33 -18 14
-1 26 -10 28 -19 2 -13 -9 -17 -55 -22 -63 -7 -83 2 -83 39 0 21 10 27 57 33
7 0 16 -5 20 -13z m468 -130 c50 -9 104 -22 120 -27 17 -6 53 -15 80 -21 81
-16 81 -31 0 -25 -69 5 -127 -5 -95 -16 8 -3 39 -8 69 -11 29 -3 58 -9 65 -14
6 -5 29 -13 51 -16 44 -8 123 -32 172 -53 17 -7 38 -13 46 -13 9 0 18 -4 21
-9 3 -5 18 -12 33 -15 33 -8 271 -94 295 -106 9 -5 45 -19 80 -30 35 -11 72
-25 83 -30 25 -12 111 -40 245 -80 58 -17 114 -35 125 -40 11 -5 72 -25 135
-45 63 -20 119 -41 124 -46 6 -5 16 -9 23 -9 34 0 438 -203 573 -288 36 -22
94 -56 130 -75 107 -55 149 -85 165 -117 19 -36 22 -36 45 -8 l17 22 379 -2
c428 -3 611 -14 722 -44 43 -11 100 -26 127 -33 49 -12 116 -34 165 -53 14 -5
52 -18 85 -27 226 -66 442 -158 559 -237 42 -29 102 -105 111 -141 6 -24 2
-29 -55 -56 -232 -113 -778 -89 -1161 50 -46 17 -99 34 -118 39 -41 10 -192
78 -396 178 -261 127 -276 136 -328 184 -28 27 -59 51 -69 54 -10 3 -18 10
-18 15 0 5 -7 9 -17 9 -14 0 -14 -2 2 -20 14 -15 15 -20 4 -20 -17 0 -86 24
-95 33 -4 3 -42 23 -85 43 -44 21 -79 40 -79 44 0 4 -24 19 -52 34 -29 15 -62
33 -73 39 -18 11 -69 43 -120 74 -11 7 -27 15 -35 19 -8 4 -43 25 -77 46 -107
65 -347 182 -438 213 -27 9 -59 21 -70 25 -11 5 -51 19 -90 31 -38 12 -74 26
-80 30 -5 3 -26 10 -45 14 -40 8 -179 54 -260 85 -30 12 -73 26 -95 31 -22 6
-44 14 -50 20 -5 5 -15 9 -23 9 -14 0 -65 20 -115 46 -16 8 -33 14 -39 14 -9
0 -133 46 -213 79 -23 9 -104 33 -185 54 -30 8 -75 20 -100 27 -25 6 -71 16
-103 21 -32 5 -67 14 -78 20 -28 15 -493 23 -604 10 -94 -10 -180 -29 -228
-49 -16 -7 -33 -12 -38 -12 -10 0 -12 -1 -92 -41 -94 -47 -187 -150 -187 -208
0 -31 32 -97 52 -110 31 -19 48 9 48 79 0 46 5 63 28 93 15 20 38 45 52 55 29
22 165 82 187 82 8 0 27 6 41 14 15 8 68 24 119 36 80 19 111 21 255 17 89 -3
183 -8 208 -12 25 -3 65 -7 90 -9 25 -1 61 -7 80 -14 19 -6 62 -16 95 -22 108
-20 170 -35 192 -48 12 -6 32 -12 44 -12 12 0 60 -15 108 -34 47 -19 104 -39
126 -46 36 -11 145 -53 220 -85 17 -7 38 -16 48 -19 9 -3 17 -10 17 -16 0 -17
-29 -23 -45 -10 -13 11 -18 10 -28 -2 -7 -10 -37 -18 -77 -22 -36 -3 -96 -10
-135 -16 -123 -17 -168 -13 -201 16 -31 27 -104 64 -127 64 -8 0 -20 6 -26 14
-6 7 -37 16 -69 20 -31 3 -82 10 -112 16 -30 6 -172 12 -315 15 -210 5 -276 3
-345 -10 -47 -9 -109 -20 -137 -25 -29 -5 -78 -21 -108 -35 -31 -14 -59 -25
-64 -25 -5 0 -29 -23 -55 -50 -42 -45 -47 -54 -41 -83 4 -18 12 -40 17 -50 10
-19 28 -14 28 7 0 19 50 62 105 90 110 55 167 61 565 61 310 0 377 -3 445 -18
118 -26 178 -50 223 -90 l22 -21 48 26 c26 14 67 28 92 32 24 4 50 11 56 17 8
6 96 11 221 11 213 1 253 -3 405 -48 26 -8 53 -14 60 -14 17 0 330 -101 343
-110 6 -4 26 -13 45 -18 62 -19 124 -43 170 -67 25 -13 88 -44 140 -70 52 -26
114 -60 138 -76 24 -16 46 -29 49 -29 4 0 14 -6 22 -14 9 -7 43 -28 76 -46 33
-18 67 -39 75 -46 9 -7 36 -23 60 -34 62 -29 149 -78 185 -105 79 -58 134 -92
175 -110 25 -10 52 -25 61 -32 8 -7 19 -13 22 -13 4 0 25 -11 46 -25 22 -13
52 -27 68 -31 15 -4 44 -17 63 -29 19 -12 46 -26 60 -30 14 -4 34 -14 45 -21
11 -8 25 -14 33 -14 7 0 30 -11 50 -25 20 -14 44 -25 53 -25 9 0 27 -8 40 -19
13 -10 53 -27 89 -36 36 -10 74 -24 85 -32 11 -7 29 -13 41 -13 11 0 24 -3 28
-7 4 -5 29 -13 54 -19 26 -7 74 -20 107 -29 137 -39 240 -64 385 -94 58 -11
135 -28 172 -36 140 -32 392 -29 513 5 17 5 56 11 87 14 86 7 92 13 118 113
28 110 40 160 47 196 7 34 35 36 56 4 8 -12 29 -38 46 -57 17 -19 31 -38 31
-42 0 -4 14 -24 32 -44 25 -28 29 -39 21 -52 -11 -19 -78 -56 -117 -66 -14 -3
-26 -11 -26 -16 0 -5 -18 -14 -41 -20 -64 -17 -63 -59 1 -60 19 0 13 -6 -28
-25 -30 -14 -64 -25 -75 -25 -12 0 -44 -7 -71 -15 -27 -8 -77 -15 -110 -16
-34 -1 -72 -4 -86 -9 -49 -15 7 -23 123 -18 107 5 143 11 267 45 68 19 237 99
243 116 3 8 10 7 23 -6 15 -14 16 -19 6 -26 -7 -4 -20 -21 -28 -36 -12 -24
-12 -30 0 -44 18 -21 4 -61 -23 -61 -19 0 -61 -43 -61 -62 0 -4 12 -13 27 -19
l27 -10 -32 -29 c-18 -16 -32 -35 -32 -41 0 -14 -59 -79 -72 -79 -4 0 -23 -11
-43 -25 -42 -28 -129 -62 -195 -76 -172 -37 -208 -41 -330 -35 -69 3 -141 10
-160 16 -19 6 -57 15 -85 20 -81 15 -197 39 -235 50 -19 5 -60 15 -90 21 -30
7 -89 24 -130 39 -41 15 -104 35 -140 44 -111 28 -271 82 -312 106 -10 6 -24
10 -32 10 -8 0 -43 15 -79 33 -35 19 -85 40 -112 48 -26 8 -50 20 -52 26 -3 7
-12 13 -20 13 -8 0 -27 6 -41 14 -15 8 -38 19 -52 25 -14 6 -47 25 -75 41 -27
17 -75 42 -105 57 -30 15 -66 34 -80 43 -88 60 -141 90 -149 86 -5 -3 -30 11
-57 32 -27 20 -71 49 -99 63 -243 126 -370 189 -380 189 -7 0 -23 8 -36 19
-13 10 -44 22 -69 26 -25 4 -61 15 -80 25 -43 22 -159 54 -265 74 -44 8 -96
22 -116 30 -20 8 -56 17 -80 20 -106 11 -218 25 -264 35 -50 10 -394 36 -470
35 -57 0 -326 -3 -350 -4 -99 -2 -207 -12 -242 -21 -23 -6 -52 -9 -64 -6 -12
3 -33 1 -47 -4 -24 -9 -93 -16 -217 -23 -27 -1 -75 -6 -105 -11 -88 -13 -98
-14 -255 -19 -239 -9 -463 17 -595 69 -35 14 -72 25 -83 25 -10 0 -30 9 -44
20 -14 11 -33 20 -42 20 -37 0 -87 85 -94 160 -2 28 0 28 88 11 109 -22 141
-26 173 -23 38 4 42 19 7 28 -31 8 -31 11 -1 49 22 27 30 30 83 30 32 0 130
-6 218 -12 211 -17 455 -9 848 27 107 9 160 17 312 47 124 24 289 27 520 9
195 -15 253 -22 520 -62 181 -27 501 -111 612 -160 17 -8 34 -14 39 -14 4 0
30 -11 58 -24 172 -81 208 -96 222 -96 8 0 25 -7 38 -16 14 -8 27 -11 30 -6 3
5 -2 13 -12 16 -22 8 -130 68 -219 122 -129 79 -489 228 -648 269 -27 7 -99
29 -160 48 -155 49 -195 58 -319 67 -125 9 -300 -2 -401 -25 -38 -9 -108 -20
-155 -24 -47 -4 -91 -10 -97 -14 -7 -4 -61 -17 -120 -29 -99 -19 -145 -21
-538 -22 -342 -1 -439 2 -475 13 -25 8 -64 20 -88 27 -53 17 -55 17 -48 -1 7
-20 -32 -20 -78 -1 -56 23 -193 151 -206 192 -15 45 -6 107 22 152 39 64 184
164 293 203 67 24 154 49 169 49 9 0 30 7 45 15 16 8 57 18 92 23 59 8 62 10
38 20 -51 21 -43 55 16 65 72 12 501 -1 590 -17z m-1354 -426 c15 -9 19 -21
18 -65 -1 -44 -6 -58 -28 -78 -23 -21 -96 -67 -106 -67 -3 0 -12 17 -20 37
-14 33 -14 40 1 78 9 26 31 54 57 73 45 35 50 37 78 22z m149 -231 c15 -28 13
-179 -3 -185 -7 -2 -40 3 -73 12 -32 9 -83 22 -112 28 -47 9 -53 13 -50 34 2
17 17 31 47 48 25 13 47 28 50 33 10 16 104 59 118 54 7 -3 18 -14 23 -24z
m-322 -38 c38 -33 52 -52 50 -67 -1 -12 3 -29 11 -38 8 -9 11 -19 7 -23 -8 -8
-56 14 -56 26 0 11 -47 83 -59 91 -11 7 -31 46 -31 60 0 15 14 6 78 -49z
m2572 0 c30 -4 45 -11 45 -21 0 -13 -17 -14 -105 -11 -102 3 -140 12 -140 31
0 13 37 13 45 0 9 -15 41 -12 56 6 8 10 20 13 33 9 12 -4 41 -10 66 -14z
m-240 -11 c0 -5 -9 -10 -20 -10 -11 0 -20 5 -20 10 0 6 9 10 20 10 11 0 20 -4
20 -10z m358 -27 c2 -8 -6 -13 -22 -13 -17 0 -26 5 -26 16 0 19 41 16 48 -3z
m87 -13 c18 -7 19 -8 3 -15 -22 -9 -51 1 -43 15 7 12 13 12 40 0z m4044 -1336
c-16 -20 -39 -17 -39 4 0 27 10 33 32 21 15 -8 17 -13 7 -25z"/>
<path d="M2345 3070 c-4 -6 19 -10 62 -9 49 1 61 3 43 9 -36 12 -98 12 -105 0z"/>
<path d="M2675 2279 c-33 -4 -100 -12 -150 -17 -49 -5 -103 -15 -118 -21 -16
-6 -49 -11 -75 -11 -26 0 -74 -5 -107 -10 -33 -6 -107 -15 -165 -20 -58 -6
-132 -14 -165 -20 -33 -5 -124 -10 -203 -11 -78 -1 -145 -5 -148 -10 -8 -14
383 -11 409 2 13 7 84 13 177 15 152 2 311 17 380 34 97 25 381 36 640 25 93
-4 396 -36 426 -45 17 -6 48 -10 70 -10 21 -1 57 -8 79 -16 22 -8 60 -19 85
-24 106 -21 146 -31 170 -39 14 -5 70 -19 125 -32 55 -12 105 -28 111 -36 6
-7 23 -13 37 -13 14 0 29 -4 32 -10 3 -5 16 -10 29 -10 12 0 31 -7 42 -15 22
-16 74 -20 74 -5 0 6 -7 10 -16 10 -9 0 -28 6 -42 14 -62 34 -216 87 -307 106
-22 4 -53 13 -70 19 -75 27 -275 71 -320 71 -16 0 -46 4 -65 10 -19 5 -69 14
-110 19 -41 6 -104 14 -140 20 -65 9 -349 28 -530 35 -52 1 -122 -1 -155 -5z"/>
<path d="M1325 2160 c28 -12 65 -12 65 0 0 6 -19 10 -42 9 -33 0 -38 -2 -23
-9z"/>
<path d="M1435 2160 c3 -5 24 -10 46 -10 21 0 39 5 39 10 0 6 -21 10 -46 10
-27 0 -43 -4 -39 -10z"/>
<path d="M4730 1935 c13 -14 28 -25 32 -25 5 0 24 -11 41 -23 18 -13 51 -33
74 -45 23 -12 62 -34 85 -49 24 -15 68 -41 98 -57 30 -16 67 -37 82 -47 14
-11 32 -19 40 -19 8 0 18 -4 24 -9 23 -23 330 -169 409 -196 27 -9 54 -20 60
-24 13 -10 129 -50 265 -91 58 -18 121 -38 140 -45 79 -30 245 -61 235 -44 -4
5 -14 9 -24 9 -10 0 -24 7 -31 15 -7 8 -22 15 -34 15 -12 0 -31 7 -42 15 -10
8 -27 15 -36 15 -24 0 -147 38 -181 56 -16 8 -35 14 -43 14 -8 0 -22 4 -32 9
-9 6 -48 22 -87 36 -38 15 -83 32 -100 40 -16 7 -41 16 -55 19 -31 9 -98 37
-208 88 -46 21 -87 38 -92 38 -5 0 -24 9 -42 20 -18 11 -39 20 -46 20 -7 0
-28 11 -45 24 -18 13 -88 52 -157 85 -69 34 -146 74 -172 89 -172 100 -200
111 -158 67z"/>
<path d="M4620 1860 c0 -5 12 -10 26 -10 14 0 23 4 19 10 -3 6 -15 10 -26 10
-10 0 -19 -4 -19 -10z"/>
<path d="M6000 1220 c14 -11 36 -23 50 -26 14 -3 43 -9 65 -14 22 -5 62 -12
90 -15 27 -4 58 -13 69 -21 23 -16 96 -19 96 -4 0 6 -13 10 -30 10 -16 0 -54
9 -84 20 -30 12 -58 20 -62 19 -5 -1 -22 3 -37 9 -16 7 -34 12 -40 12 -7 0
-21 7 -31 15 -11 8 -40 15 -65 15 l-46 0 25 -20z"/>
<path d="M6404 1113 c8 -9 139 -33 145 -27 2 2 -12 11 -32 19 -37 15 -127 21
-113 8z"/>
<path d="M6372 2589 c3 -8 20 -15 44 -15 21 -1 56 -2 76 -3 20 0 43 -8 52 -16
17 -17 126 -21 126 -5 0 6 -17 10 -37 10 -21 0 -51 7 -68 16 -16 8 -68 18
-114 21 -69 5 -83 4 -79 -8z"/>
<path d="M6720 2520 c36 -11 50 -11 50 0 0 6 -17 10 -37 9 -34 -1 -35 -2 -13
-9z"/>
<path d="M7665 1728 c-3 -8 0 -28 7 -44 l12 -29 4 34 c4 36 -13 65 -23 39z"/>
</g>
</svg>
