<?xml version="1.0" standalone="no"?>
<!DOCTYPE svg PUBLIC "-//W3C//DTD SVG 20010904//EN"
 "http://www.w3.org/TR/2001/REC-SVG-20010904/DTD/svg10.dtd">
<svg version="1.0" xmlns="http://www.w3.org/2000/svg"
 width="300.000000pt" height="300.000000pt" viewBox="0 0 300.000000 300.000000"
 preserveAspectRatio="xMidYMid meet">
<metadata>
Created by potrace 1.10, written by Peter Selinger 2001-2011
</metadata>
<g transform="translate(0.000000,300.000000) scale(0.050000,-0.050000)"
fill="#000000" stroke="none">
<path d="M2370 5220 c8 -24 4 -40 -10 -40 -14 0 -11 -12 7 -30 34 -34 62 -40
43 -10 -26 42 23 16 95 -51 67 -62 105 -130 56 -100 -10 6 -23 3 -30 -7 -13
-21 40 -17 62 4 8 8 35 0 60 -16 92 -61 45 7 -64 91 -61 47 -132 111 -158 142
-57 67 -79 73 -61 17z"/>
<path d="M2833 5247 c-7 -8 -13 -68 -13 -133 0 -119 0 -120 -40 -84 -52 47
-51 22 1 -52 60 -83 68 -74 74 76 3 74 15 144 26 155 15 15 17 9 7 -17 -9 -24
-7 -34 5 -26 11 7 64 -46 116 -118 59 -80 106 -126 123 -120 15 6 32 2 39 -9
32 -52 53 -12 44 81 -5 55 -6 100 -3 100 27 0 109 -103 97 -122 -9 -15 -7 -19
6 -11 21 13 113 -80 129 -130 11 -33 56 -2 56 39 0 63 42 185 60 174 9 -6 20
5 24 25 4 19 20 -21 34 -90 15 -69 36 -125 47 -125 11 0 15 19 9 41 -24 93 38
20 66 -78 32 -112 73 -143 52 -39 -16 83 -109 240 -133 225 -11 -6 -19 15 -19
46 0 134 -106 85 -150 -69 l-32 -108 -76 96 c-187 233 -270 277 -214 114 49
-145 42 -165 -34 -92 -36 35 -75 64 -86 64 -11 0 -46 45 -79 100 -54 91 -101
121 -136 87z"/>
<path d="M2180 5143 c0 -10 17 -57 38 -105 67 -155 70 -178 23 -178 -22 0 -41
-10 -41 -21 0 -12 25 -19 55 -15 61 7 64 39 15 182 -22 64 -22 72 2 52 47 -39
31 12 -18 59 -49 46 -74 54 -74 26z"/>
<path d="M3781 5015 c-1 -90 7 -155 19 -155 11 0 21 38 22 85 l1 85 28 -60
c15 -33 42 -125 60 -205 18 -80 42 -145 53 -145 11 0 14 16 7 35 -8 19 -22 76
-31 126 -56 294 -159 444 -159 234z"/>
<path d="M2330 5057 c-19 -82 -18 -87 23 -87 24 0 38 9 31 19 -6 11 -17 50
-23 88 l-11 68 -20 -88z"/>
<path d="M1851 4975 c8 -25 32 -80 53 -122 21 -42 34 -82 28 -88 -6 -6 7 -33
29 -61 66 -84 31 -73 -169 53 -228 143 -244 126 -93 -93 105 -153 108 -162 30
-111 -70 45 -82 21 -28 -54 41 -58 42 -63 7 -52 -21 6 -72 16 -114 22 -41 6
-130 29 -197 52 -67 23 -126 37 -131 32 -14 -15 82 -157 171 -253 92 -98 95
-104 55 -88 -15 6 -34 1 -41 -11 -7 -11 1 -21 19 -21 18 0 52 -11 76 -23 48
-26 -232 -135 -349 -136 -152 -2 -149 -41 8 -111 69 -31 131 -65 138 -75 6
-11 54 -24 105 -30 50 -6 92 -18 92 -28 0 -10 17 -9 39 2 21 12 62 21 91 21
95 0 34 34 -84 46 -64 7 -183 35 -264 63 -141 48 -207 81 -142 70 17 -3 44 0
60 7 74 29 394 138 434 148 38 9 29 21 -75 90 -106 71 -259 222 -259 257 0 7
47 1 104 -14 57 -15 162 -32 235 -40 l131 -12 -48 52 c-54 58 -39 67 38 23 59
-34 100 -38 100 -10 0 11 -12 20 -27 20 -23 0 -213 259 -213 291 0 7 25 -6 55
-27 222 -157 447 -209 329 -76 -39 44 -144 220 -144 242 0 6 29 -10 65 -36
172 -128 352 -199 241 -95 -23 21 -47 33 -53 27 -14 -14 -194 100 -243 154
-48 53 -76 51 -59 -5z"/>
<path d="M4054 4853 c-16 -42 9 -273 29 -261 9 6 17 39 17 73 0 59 2 61 29 24
38 -50 38 -14 1 51 -16 28 -29 70 -29 95 -1 50 -31 61 -47 18z"/>
<path d="M2680 4796 c0 -9 20 -25 45 -35 41 -17 42 -19 5 -20 -69 -3 112 -74
282 -110 275 -60 362 -32 107 33 -294 75 -335 93 -219 94 50 1 126 -7 169 -17
75 -18 111 -14 88 9 -35 35 -477 78 -477 46z"/>
<path d="M3580 4690 c14 -128 63 -204 53 -83 -7 89 -7 89 45 8 66 -104 48 -26
-20 85 -78 128 -93 126 -78 -10z"/>
<path d="M4164 4649 c-15 -17 -23 -50 -19 -75 8 -44 8 -44 32 6 21 44 23 36
17 -65 -9 -141 6 -143 128 -23 l94 92 -28 -121 c-16 -67 -37 -144 -47 -170
-22 -58 -6 -82 33 -50 23 19 24 14 7 -31 -30 -78 -26 -92 24 -92 36 -1 39 -5
16 -19 -40 -26 -27 -35 139 -100 l144 -56 -126 -42 c-69 -24 -147 -43 -172
-43 -66 0 -57 -39 14 -53 32 -6 71 -26 85 -43 19 -25 19 -28 0 -17 -56 34 -20
-29 45 -78 38 -29 65 -62 59 -71 -7 -10 9 -27 35 -39 35 -15 22 -17 -59 -9
-115 12 -135 -9 -57 -60 48 -32 222 -251 196 -247 -52 7 -63 -11 -14 -23 44
-11 16 -16 -100 -18 -88 -1 -189 6 -225 17 -80 22 -80 20 -5 -89 33 -48 60
-93 60 -99 0 -21 -149 64 -188 107 -55 60 -65 54 -92 -60 -20 -81 -20 -111 1
-150 31 -58 59 -62 59 -9 0 56 33 68 47 16 6 -24 2 -50 -10 -57 -15 -9 -14
-18 2 -28 17 -10 13 -26 -16 -57 -40 -42 -43 -49 -43 -95 0 -12 -13 -17 -30
-11 -16 7 -30 3 -30 -8 0 -10 11 -19 24 -19 52 0 -72 -65 -141 -75 -40 -5 -76
-17 -80 -27 -3 -10 -19 -18 -35 -18 -15 0 -26 -10 -23 -23 3 -12 -8 -27 -23
-32 -15 -6 -22 -1 -15 10 7 12 0 26 -16 32 -23 9 -24 20 -5 62 13 28 35 47 49
42 28 -11 35 41 8 57 -10 6 -22 55 -27 109 -6 64 -28 121 -63 167 -67 88 -67
106 -2 63 75 -49 95 -16 67 115 -29 142 -51 161 -68 60 -17 -104 -32 -103 -86
8 -64 133 -81 110 -49 -65 26 -142 99 -325 148 -375 25 -26 -18 90 -47 125
-30 36 -10 50 29 20 31 -24 63 -215 37 -215 -7 0 -37 23 -66 50 -30 28 -62 50
-72 50 -9 0 -17 12 -17 26 0 29 -228 340 -240 328 -14 -15 61 -331 77 -322 9
6 16 -7 16 -28 0 -22 5 -69 12 -107 l11 -67 -40 49 c-22 28 -36 56 -31 64 4 7
0 34 -11 60 -17 44 -19 43 -20 -16 0 -35 -7 -79 -14 -99 -10 -23 -6 -30 10
-20 34 21 28 -19 -7 -48 -16 -14 -30 -44 -30 -67 -1 -80 -36 -108 -52 -42 -7
32 -31 83 -51 112 -20 29 -37 61 -37 70 0 9 19 -10 42 -43 41 -59 41 -59 30
-8 -6 28 -17 116 -24 195 -19 196 -35 193 -75 -13 -19 -96 -41 -201 -50 -234
l-17 -60 -24 86 c-13 47 -19 103 -12 125 10 29 5 36 -19 27 -17 -7 -31 -36
-32 -65 -1 -38 -118 371 -119 413 0 4 -9 1 -20 -6 -11 -7 -20 -35 -20 -62 0
-61 -39 -44 -42 18 -1 24 -22 -35 -46 -131 -57 -222 -61 -225 -90 -53 -23 144
-153 574 -182 605 -9 9 -22 -11 -30 -45 -7 -34 -45 -108 -83 -164 -39 -56 -65
-106 -59 -112 6 -6 -3 -37 -19 -69 -17 -31 -21 -57 -10 -57 22 0 101 80 101
102 0 9 9 39 20 69 l21 53 37 -47 c20 -26 51 -75 68 -109 l32 -62 -149 -19
c-187 -23 -207 21 -118 258 38 100 14 93 -74 -23 -74 -97 -173 -275 -108 -193
43 53 39 25 -9 -64 -22 -41 -40 -85 -40 -99 0 -13 -8 -28 -17 -34 -9 -6 -13
61 -9 149 10 187 9 188 -72 62 -75 -117 -78 -138 -12 -95 107 70 50 -26 -75
-127 -144 -116 -156 -109 -88 52 26 64 55 140 63 167 9 28 32 71 53 98 93 119
22 107 -107 -18 -86 -84 -119 -151 -37 -75 22 20 25 19 15 -9 -8 -24 -4 -31
17 -23 22 8 18 -13 -14 -91 -43 -103 -75 -133 -38 -35 20 52 -5 96 -27 48 -9
-18 -15 -19 -23 -2 -6 12 -31 19 -55 14 -40 -9 -40 -7 6 20 28 16 50 38 50 47
0 51 142 246 179 246 67 0 345 112 326 132 -4 4 -129 -18 -277 -51 -304 -66
-468 -67 -716 -5 l-147 36 161 44 c200 55 404 148 404 184 0 15 -356 11 -372
-5 -20 -21 92 -58 134 -44 21 6 52 3 71 -7 40 -23 -74 -63 -328 -116 -91 -19
-165 -41 -165 -49 0 -29 294 -124 415 -134 139 -12 155 -28 65 -65 -80 -33
-103 -70 -33 -53 29 8 53 8 53 1 0 -25 -144 -208 -204 -258 -89 -75 -58 -82
129 -31 253 70 307 69 242 -3 -37 -40 -21 -78 17 -40 51 51 52 20 4 -88 -59
-133 -50 -158 24 -70 55 66 87 72 52 10 -14 -25 -9 -53 18 -102 21 -37 38
-106 38 -153 0 -47 10 -95 23 -108 18 -18 17 -31 -3 -55 -22 -27 -13 -44 66
-119 66 -64 95 -109 104 -165 20 -117 24 -124 99 -160 57 -27 87 -29 160 -12
96 22 198 -17 224 -84 12 -32 98 -41 115 -13 6 10 103 39 215 65 264 61 304
90 426 308 85 151 111 181 156 186 84 10 84 -153 0 -191 -30 -14 -86 -53 -125
-86 l-70 -61 70 12 c39 7 93 31 120 52 28 22 65 45 84 51 26 9 31 25 22 72
-10 52 -7 60 21 49 25 -10 33 -1 33 32 1 136 49 170 104 74 47 -83 77 -77 51
10 -27 87 -5 114 40 49 51 -73 168 -199 184 -199 8 0 -2 51 -23 112 -59 173
-44 210 48 120 111 -108 132 -102 86 28 -16 46 -24 93 -18 103 14 23 68 -18
68 -52 0 -14 18 -41 40 -61 48 -43 73 -4 52 81 -18 71 6 101 41 50 16 -22 38
-41 49 -41 11 0 6 20 -11 44 -46 66 -42 112 6 69 56 -51 69 -39 30 26 -47 81
-33 87 94 42 132 -46 137 -38 62 112 -100 200 -103 252 -9 164 77 -73 76 -24
-1 71 -93 113 -93 112 37 112 61 0 110 9 110 20 0 11 39 20 87 20 124 0 124
12 2 146 -129 143 -132 154 -34 154 56 1 67 6 45 20 -26 17 -25 19 5 20 58 0
39 25 -86 117 -66 47 -119 96 -119 107 0 13 12 11 30 -4 17 -14 30 -16 30 -5
0 11 -22 35 -50 53 -67 44 -63 65 15 80 72 13 195 82 195 108 0 10 -52 32
-115 50 -137 38 -224 92 -150 93 25 1 45 10 45 21 0 11 -30 20 -67 20 -92 0
-96 10 -39 112 56 100 49 134 -17 76 -50 -44 -52 -66 19 187 52 182 33 194
-87 55 -118 -137 -129 -137 -129 0 0 114 -11 130 -56 79z m-2359 -1383 c-36
-5 -94 -5 -130 0 -36 4 -6 8 65 8 72 0 101 -4 65 -8z m23 -51 c-35 -62 -154
-196 -164 -186 -19 19 -24 153 -5 142 9 -6 21 7 27 29 8 31 27 40 83 40 53 0
69 -7 59 -25z m422 -248 c25 -25 37 -27 48 -10 9 14 86 29 184 36 l168 12 23
-62 c29 -79 -36 -86 -231 -25 -119 37 -174 26 -124 -24 12 -12 22 -42 22 -66
0 -47 228 -116 341 -103 40 4 50 -5 55 -50 9 -76 37 -69 52 12 12 61 91 165
92 121 1 -10 18 4 39 32 l38 49 13 -59 c8 -33 22 -91 32 -130 10 -38 18 -99
18 -134 0 -92 36 -100 52 -12 l14 76 29 -90 c15 -49 33 -103 39 -120 6 -17 27
28 46 100 34 125 36 128 50 65 8 -35 27 -74 42 -87 16 -13 28 -35 28 -50 0
-16 8 -28 18 -28 91 0 -66 -273 -195 -338 -147 -75 -606 -198 -778 -208 -182
-11 -196 -3 -233 151 -8 34 -43 74 -91 104 -43 27 -83 59 -90 70 -20 31 36 25
80 -8 22 -17 54 -30 72 -30 19 -1 37 -11 41 -23 4 -12 34 -18 67 -14 56 8 53
11 -60 64 -125 58 -243 144 -213 155 20 8 28 44 24 113 -1 30 -10 41 -25 32
-14 -8 -18 -5 -10 7 20 32 -8 89 -39 77 -17 -7 -22 1 -14 22 8 20 5 28 -9 19
-11 -7 -26 1 -32 17 -9 22 9 33 69 43 79 12 138 51 138 89 0 11 -27 -1 -60
-25 -94 -69 -86 -35 12 49 l88 77 1 -57 c0 -55 1 -55 32 -16 31 39 31 38 19
-15 -8 -32 -4 -55 8 -55 11 0 20 33 20 74 0 61 37 206 53 206 2 0 19 -15 37
-33z m379 -127 c81 0 130 -35 96 -68 -33 -33 -325 7 -325 45 0 39 47 59 94 42
27 -11 88 -19 135 -19z m1060 -86 c75 -57 84 -72 65 -105 -21 -37 -23 -36 -34
11 -6 28 -40 68 -75 90 -57 36 -83 70 -54 70 6 0 50 -30 98 -66z m-8 -88 c32
-84 -3 -116 -67 -61 -63 54 -68 85 -19 112 43 24 62 13 86 -51z m138 -48 c-37
-69 -340 -294 -381 -283 -59 15 -47 82 17 98 85 21 282 144 317 198 38 57 78
46 47 -13z m-219 -53 c0 -47 -77 -96 -106 -67 -29 29 20 83 61 67 21 -8 27 -4
17 12 -8 12 -5 23 7 23 11 0 21 -16 21 -35z m-792 -696 c-6 -21 -34 -56 -63
-77 -54 -40 -49 -25 22 73 45 61 57 62 41 4z"/>
<path d="M3760 4552 c0 -16 -9 -32 -20 -35 -12 -4 -26 -55 -33 -113 l-13 -105
-46 75 c-26 42 -47 62 -47 44 -1 -56 41 -154 71 -166 15 -6 35 -13 42 -16 8
-4 14 28 13 69 -1 41 5 75 13 75 8 0 21 29 29 65 l14 65 47 -105 c26 -58 57
-105 69 -105 11 0 21 -13 21 -28 0 -16 25 -37 55 -48 l55 -19 -54 -14 c-29 -8
-58 -28 -65 -45 -7 -19 -2 -27 14 -21 14 5 72 25 130 44 130 43 134 67 10 75
l-95 6 -6 85 c-7 92 -17 102 -53 53 -20 -28 -31 -16 -72 79 -48 109 -79 143
-79 85z"/>
<path d="M1970 4380 c-77 -32 -160 -58 -184 -59 -66 -2 -78 -41 -12 -41 43 -1
49 -5 26 -20 -49 -32 3 -23 181 30 161 48 278 111 154 83 -150 -35 -165 -33
-80 6 47 22 85 44 85 50 0 18 -24 11 -170 -49z"/>
<path d="M2340 4222 c0 -11 28 -39 61 -63 85 -60 63 -68 -59 -22 -119 46 -125
39 -37 -53 l65 -68 -78 33 c-44 17 -91 42 -105 53 -14 12 -36 18 -49 14 -103
-34 479 -300 638 -292 85 5 104 11 74 24 -393 169 -573 265 -460 245 188 -33
263 -33 200 -2 l-60 30 70 -12 c39 -7 89 -17 113 -22 23 -6 49 -1 56 11 7 12
6 22 -3 22 -77 1 -286 49 -348 81 -43 22 -78 31 -78 21z"/>
<path d="M3687 4120 c-82 -36 -130 -80 -87 -80 12 0 49 14 82 31 33 17 78 25
100 18 40 -12 98 20 98 54 0 10 -25 2 -55 -17 -52 -33 -53 -33 -28 -1 37 47 2
45 -110 -5z"/>
<path d="M3915 3993 c-25 -60 -19 -171 7 -128 11 20 18 65 14 100 -5 51 -9 57
-21 28z"/>
<path d="M3980 3989 c-17 -19 -20 -37 -8 -46 10 -7 29 -35 42 -63 23 -49 23
-49 24 20 2 95 -23 133 -58 89z"/>
<path d="M1440 3725 l-70 -31 70 -17 c71 -16 180 11 180 45 0 22 4 22 -77 -1
-57 -16 -63 -15 -42 10 28 34 28 34 -61 -6z"/>
<path d="M2712 3623 c-101 -69 -37 -87 86 -24 88 45 109 72 39 50 -28 -9 -38
-6 -28 9 21 35 -12 23 -97 -35z"/>
<path d="M2331 3601 c-83 -86 -59 -105 49 -39 124 76 134 91 60 91 -38 0 -77
-19 -109 -52z"/>
<path d="M3002 3445 l-202 -215 72 165 c39 91 68 176 63 189 -4 13 -29 -30
-55 -95 -25 -66 -72 -171 -104 -234 -53 -109 -51 -152 4 -85 35 43 48 23 20
-30 -47 -88 33 -13 194 180 314 378 319 457 8 125z"/>
<path d="M1910 3463 c-33 -20 -103 -52 -155 -72 -53 -20 -91 -41 -86 -47 16
-16 285 94 312 127 33 40 1 36 -71 -8z"/>
<path d="M3972 3215 c-30 -91 -74 -186 -98 -213 l-44 -47 47 24 c32 17 54 18
68 4 11 -11 32 -15 47 -9 16 6 28 1 28 -11 0 -28 75 -68 99 -53 11 6 7 39 -9
78 -16 37 -23 72 -16 79 15 16 -35 313 -54 313 -7 0 -38 -74 -68 -165z"/>
</g>
</svg>
