<?xml version="1.0" standalone="no"?>
<!DOCTYPE svg PUBLIC "-//W3C//DTD SVG 20010904//EN"
 "http://www.w3.org/TR/2001/REC-SVG-20010904/DTD/svg10.dtd">
<svg version="1.0" xmlns="http://www.w3.org/2000/svg"
 width="900.000000pt" height="900.000000pt" viewBox="0 0 900.000000 900.000000"
 preserveAspectRatio="xMidYMid meet">
<metadata>
Created by potrace 1.10, written by Peter Selinger 2001-2011
</metadata>
<g transform="translate(0.000000,900.000000) scale(0.100000,-0.100000)"
fill="#000000" stroke="none">
<path d="M4955 7029 c-27 -4 -84 -12 -125 -18 -147 -20 -354 -101 -456 -179
-75 -56 -90 -71 -167 -158 -101 -114 -153 -184 -170 -228 -15 -37 -34 3 -46
97 -19 145 -21 157 -30 157 -14 0 -29 -23 -36 -55 -9 -41 -54 -155 -76 -195
-5 -8 -14 -26 -19 -39 -12 -28 -66 -105 -97 -141 -13 -13 -23 -28 -23 -32 0
-5 -7 -8 -15 -8 -18 0 -20 42 -3 73 25 45 37 215 26 342 -11 126 -39 260 -54
260 -5 0 -10 -18 -12 -40 -6 -82 -69 -243 -126 -328 -14 -21 -26 -41 -26 -45
0 -4 -8 -15 -17 -23 -10 -9 -34 -33 -54 -55 -44 -48 -115 -114 -144 -134 -20
-14 -41 -31 -169 -140 -64 -54 -173 -177 -202 -226 -15 -25 -31 -43 -38 -41
-8 3 -11 57 -11 175 0 168 -6 208 -24 161 -5 -14 -18 -45 -29 -69 -28 -60 -66
-166 -99 -280 -9 -30 -19 -111 -22 -179 -4 -91 -10 -126 -19 -129 -34 -11
-138 141 -172 250 -6 20 -17 41 -24 47 -20 17 -26 -16 -26 -161 0 -130 2 -139
51 -260 10 -26 19 -52 19 -58 0 -13 -60 -70 -73 -70 -10 0 -79 -62 -140 -125
-105 -108 -217 -285 -180 -285 3 0 21 11 39 25 18 14 35 25 38 25 3 0 22 12
43 26 21 14 47 30 58 35 11 5 27 13 35 18 38 22 71 34 77 27 9 -9 -4 -30 -82
-132 -33 -44 -75 -111 -94 -149 -18 -39 -38 -78 -43 -88 -8 -17 -21 -70 -38
-167 -5 -25 -9 -65 -9 -91 -1 -38 -6 -50 -33 -75 -44 -41 -114 -94 -124 -94
-4 0 -15 -6 -23 -13 -32 -27 -137 -50 -201 -44 -51 4 -60 3 -60 -11 0 -18 64
-68 115 -90 48 -22 135 -43 203 -49 40 -4 62 -10 62 -19 0 -7 -4 -14 -9 -16
-5 -1 -31 -30 -58 -63 -96 -116 -137 -247 -137 -433 0 -75 5 -117 13 -125 18
-18 27 4 35 77 11 102 52 192 112 247 70 64 166 104 149 62 -4 -10 -10 -38
-15 -63 -33 -188 -33 -187 -20 -262 6 -40 14 -87 17 -104 4 -26 -1 -34 -31
-58 -51 -39 -116 -66 -228 -95 -53 -14 -96 -30 -96 -36 2 -11 62 -29 143 -44
28 -5 64 -15 80 -22 21 -10 87 -14 225 -14 l195 -1 2 -44 c4 -73 24 -204 33
-215 4 -5 10 -21 13 -35 18 -80 57 -147 79 -134 5 3 8 20 8 38 0 64 83 258
113 264 9 2 41 -18 72 -43 32 -25 75 -57 97 -71 21 -14 42 -32 45 -40 6 -17
-22 -173 -39 -217 -19 -48 13 -53 97 -15 51 22 88 49 146 106 l57 54 15 -23
c9 -13 20 -42 25 -64 28 -119 118 -228 257 -312 11 -7 52 -31 90 -54 39 -24
91 -57 116 -75 25 -18 56 -38 70 -44 13 -6 44 -22 69 -36 99 -57 268 -140 315
-156 136 -46 380 -61 517 -33 119 25 175 53 327 164 86 63 386 331 419 375 47
62 101 192 102 244 0 37 16 58 61 82 47 24 144 96 173 129 25 28 39 27 78 -8
18 -16 50 -36 72 -45 42 -18 151 -22 161 -6 3 5 14 10 24 10 25 0 96 64 87 78
-4 7 -13 12 -21 12 -8 0 -35 14 -60 31 -54 37 -98 120 -93 179 3 31 6 35 28
33 50 -5 106 -38 161 -93 63 -63 105 -125 111 -160 4 -34 26 -36 34 -4 8 32
-13 251 -27 276 -5 10 -9 32 -9 49 0 16 -5 39 -10 50 -16 30 10 34 104 18 103
-18 236 -16 302 4 71 21 159 65 184 92 l21 22 -33 19 c-18 11 -50 28 -72 39
-68 35 -129 98 -148 153 -28 79 -19 147 15 113 6 -6 21 -11 32 -11 25 0 86
-42 137 -92 45 -46 98 -114 98 -127 0 -5 10 -15 22 -22 l21 -11 -7 98 c-9 141
-44 242 -128 371 l-48 73 33 20 c52 31 214 168 263 222 60 67 179 297 204 393
4 17 11 38 15 48 11 26 -22 22 -86 -12 -99 -53 -104 -52 -180 50 -43 58 -203
220 -259 264 -30 23 -75 53 -100 67 -66 36 -63 50 22 99 87 50 192 154 266
262 50 75 63 107 42 107 -5 0 -35 -13 -67 -29 -116 -59 -177 -73 -310 -74
-122 -1 -159 6 -278 51 -134 50 -259 114 -263 136 -5 22 41 72 88 96 52 26
204 44 320 37 55 -3 100 -3 100 2 0 14 -25 38 -55 53 -71 36 -106 46 -196 58
-198 25 -208 29 -146 61 87 44 208 79 272 79 72 0 60 30 -40 97 -80 53 -174
96 -266 122 -60 17 -103 21 -217 21 -82 0 -143 4 -147 10 -3 5 5 33 19 61 15
28 26 57 26 64 0 8 6 29 14 47 31 73 46 176 46 321 0 148 -6 207 -21 207 -11
0 -39 -54 -39 -75 0 -9 -21 -59 -47 -112 -62 -125 -164 -237 -256 -281 -109
-53 -167 -61 -457 -66 -146 -2 -276 -6 -290 -8 -22 -3 -25 1 -28 29 -3 27 7
46 52 105 30 40 73 91 95 113 67 65 52 71 -57 25 -133 -56 -126 -38 53 146
119 121 142 150 128 156 -10 3 -20 6 -23 6 -3 0 -27 -4 -55 -9z m1881 -2227
c66 -23 204 -103 204 -118 0 -14 -73 -34 -124 -34 -72 0 -210 52 -280 105 -62
47 93 85 200 47z"/>
</g>
</svg>
