<?xml version="1.0" standalone="no"?>
<!DOCTYPE svg PUBLIC "-//W3C//DTD SVG 20010904//EN"
 "http://www.w3.org/TR/2001/REC-SVG-20010904/DTD/svg10.dtd">
<svg version="1.0" xmlns="http://www.w3.org/2000/svg"
 width="900.000000pt" height="900.000000pt" viewBox="0 0 900.000000 900.000000"
 preserveAspectRatio="xMidYMid meet">
<metadata>
Created by potrace 1.10, written by Peter Selinger 2001-2011
</metadata>
<g transform="translate(0.000000,900.000000) scale(0.100000,-0.100000)"
fill="#000000" stroke="none">
<path d="M3830 8421 c-5 -11 -36 -31 -67 -46 -32 -14 -67 -31 -78 -37 -11 -6
-36 -15 -55 -19 -113 -25 -137 -31 -155 -39 -11 -5 -31 -12 -45 -16 -14 -3
-39 -17 -57 -30 -17 -13 -34 -24 -37 -24 -3 0 -32 -20 -65 -45 -32 -25 -65
-45 -73 -45 -7 -1 -31 -9 -53 -20 -22 -11 -44 -19 -49 -20 -17 0 -158 -112
-208 -164 -68 -70 -131 -155 -159 -213 -12 -26 -44 -72 -71 -101 -26 -30 -51
-66 -54 -80 -4 -15 -10 -31 -14 -37 -18 -26 -40 -119 -35 -148 5 -24 0 -41
-17 -67 -52 -76 -61 -124 -41 -220 l17 -77 -27 -34 c-14 -19 -30 -45 -36 -59
-12 -28 -26 -51 -59 -98 -19 -26 -23 -46 -24 -101 0 -38 3 -75 7 -81 9 -14
140 -9 155 6 5 5 16 58 25 119 9 60 24 122 33 138 16 26 20 28 84 25 52 -1 69
-6 73 -18 3 -8 -2 -51 -10 -94 -8 -43 -15 -105 -15 -139 -1 -88 -36 -355 -53
-397 -24 -63 -41 -95 -54 -103 -18 -11 -16 -27 2 -27 8 0 15 3 15 8 0 4 10 18
23 32 64 71 127 208 127 278 0 21 4 63 10 93 5 30 14 114 19 188 11 156 18
170 75 151 19 -6 40 -8 46 -5 6 4 19 1 28 -7 9 -8 32 -21 50 -28 18 -7 39 -22
47 -34 8 -11 15 -15 15 -9 0 19 32 24 56 8 17 -11 47 -15 108 -14 46 1 93 -4
104 -10 12 -6 33 -9 47 -5 15 4 39 0 58 -9 27 -13 56 -15 172 -9 77 4 192 7
255 7 99 0 119 -3 142 -20 44 -33 68 -93 68 -172 l0 -70 -63 -84 c-69 -92
-121 -186 -132 -236 -3 -18 -11 -35 -16 -38 -11 -7 -11 -102 0 -130 7 -16 9
-14 14 14 4 19 7 50 7 71 0 21 7 43 15 50 8 7 15 23 15 35 0 12 7 28 15 35 8
7 15 17 15 22 0 5 21 36 46 69 47 61 81 79 71 37 -3 -13 -9 -124 -13 -247 -8
-248 -4 -234 -84 -291 -19 -13 -39 -28 -45 -33 -5 -4 -39 -29 -75 -55 -36 -26
-79 -59 -95 -74 -32 -30 -65 -37 -65 -14 0 25 23 81 50 122 61 91 71 158 55
354 -8 93 -10 100 -17 66 -5 -22 -15 -48 -24 -57 -12 -13 -12 -19 -3 -25 9 -5
8 -10 -4 -19 -10 -7 -22 -36 -27 -65 -6 -29 -22 -68 -36 -87 -14 -18 -34 -53
-45 -77 -10 -24 -26 -49 -34 -56 -11 -9 -15 -35 -15 -105 0 -92 0 -93 36 -137
20 -23 41 -46 47 -50 6 -3 15 -21 21 -40 7 -22 18 -34 33 -36 28 -4 51 -30 32
-36 -54 -16 -53 -14 -26 -46 41 -48 43 -68 10 -104 -29 -31 -45 -71 -63 -156
-21 -104 -57 -241 -81 -310 -25 -72 -45 -106 -91 -152 -47 -48 -47 -48 -115
-48 -64 -1 -103 -14 -103 -36 0 -10 24 -36 99 -108 28 -27 51 -53 51 -59 0 -5
15 -27 33 -48 17 -21 50 -61 72 -90 22 -29 52 -64 68 -78 15 -14 27 -31 27
-38 0 -8 -12 -19 -27 -25 -27 -11 -27 -11 28 -23 30 -6 61 -15 67 -19 7 -4 40
-10 75 -14 34 -4 61 -11 60 -17 -1 -5 -32 -31 -69 -57 -76 -51 -156 -74 -200
-58 -32 12 -91 13 -98 1 -13 -20 37 -100 104 -171 61 -64 103 -124 151 -212 5
-10 9 -23 9 -30 0 -7 7 -26 16 -43 19 -36 23 -127 6 -147 -6 -8 -29 -21 -51
-28 -90 -29 -242 47 -305 154 -14 25 -26 49 -26 55 0 10 -50 125 -71 161 -4 8
-18 33 -30 55 -11 22 -34 59 -50 83 -16 24 -29 46 -29 49 0 3 -13 22 -29 42
-15 20 -30 41 -32 47 -4 12 -21 35 -91 123 -24 29 -61 79 -84 110 -40 56 -41
56 -99 59 -105 6 -223 -71 -376 -244 -14 -16 -50 -41 -80 -55 -114 -56 -189
-89 -203 -89 -7 0 -19 -7 -26 -15 -7 -8 -21 -15 -32 -15 -62 0 -217 -136 -253
-222 -16 -39 -28 -51 -65 -68 -110 -50 -328 -188 -347 -220 -11 -17 -10 -21 8
-30 11 -6 47 -37 80 -68 34 -31 67 -60 74 -64 37 -22 187 -212 265 -335 40
-63 72 -83 138 -83 57 0 282 -78 351 -122 25 -15 49 -28 54 -28 5 0 32 -16 61
-35 28 -19 79 -46 111 -60 33 -15 68 -30 77 -36 36 -19 105 -41 153 -49 28 -5
62 -12 78 -15 26 -7 27 -6 27 28 0 20 -4 39 -10 42 -16 10 -11 34 9 44 15 9
31 2 83 -37 77 -57 96 -69 128 -83 13 -5 27 -13 30 -17 3 -4 16 -13 30 -19 34
-17 96 -53 147 -86 74 -47 100 -30 37 25 -76 67 -176 220 -189 291 -6 31 -3
44 21 80 99 148 303 347 354 347 27 0 180 -159 180 -187 0 -14 2 -14 14 3 14
19 15 19 48 -1 51 -30 178 -28 238 5 25 13 47 27 50 30 3 4 12 10 20 13 8 4
29 16 45 27 17 11 37 23 45 27 8 4 42 25 75 47 88 59 98 65 115 73 8 3 31 18
50 33 19 15 40 29 45 31 26 11 115 73 115 80 0 5 9 9 20 9 28 0 25 -10 -14
-61 -18 -25 -42 -60 -53 -79 -10 -19 -30 -53 -44 -75 -53 -83 -144 -256 -195
-373 -40 -92 -48 -108 -55 -122 -4 -8 -25 -49 -45 -90 -48 -96 -94 -161 -160
-227 -80 -82 -121 -66 -139 55 -6 37 -15 65 -20 62 -24 -11 -67 -166 -69 -250
-1 -60 1 -65 25 -77 15 -7 74 -20 131 -29 111 -17 108 -18 275 25 17 5 51 4
75 -1 24 -5 81 -13 128 -18 47 -5 112 -14 144 -20 47 -9 92 -8 225 5 143 14
328 46 351 60 4 3 63 10 130 16 97 9 132 8 162 -2 46 -15 168 -3 323 30 55 12
165 26 245 30 93 6 161 15 190 26 25 9 83 28 130 41 114 34 341 176 447 281
51 50 173 248 173 280 0 7 11 30 23 51 13 20 43 69 66 108 22 39 61 93 86 120
24 27 44 52 45 56 0 12 168 154 228 194 31 21 60 42 64 47 7 11 -17 100 -38
137 -48 85 -87 132 -136 166 -24 16 -49 35 -56 42 -7 6 -19 12 -26 12 -8 0
-19 7 -26 15 -7 8 -18 15 -26 15 -7 0 -42 20 -78 45 -37 25 -68 45 -70 45 -3
0 -34 20 -70 45 -37 25 -69 45 -72 45 -3 0 -29 15 -57 34 -29 19 -65 40 -82
46 -56 23 -70 29 -119 49 -27 12 -57 21 -68 21 -21 0 -113 26 -138 39 -9 5
-39 12 -67 16 -29 4 -84 24 -125 45 -40 21 -101 53 -136 71 -71 36 -137 103
-211 214 -78 116 -84 129 -70 174 9 29 9 47 0 73 -8 25 -9 43 -2 59 10 24 27
105 40 189 8 55 17 70 40 70 24 0 43 -24 56 -69 8 -26 16 -36 30 -36 17 0 21
8 23 47 2 25 -1 61 -6 80 -6 22 -4 50 6 88 11 42 13 101 10 248 -4 187 -4 193
15 190 20 -3 111 -124 123 -163 10 -31 24 -44 40 -38 11 4 14 13 9 30 -6 26
13 141 28 161 5 6 29 12 53 12 l44 0 0 41 c0 22 -4 48 -10 58 -5 10 -12 103
-14 207 -5 166 -23 339 -42 388 -10 25 15 48 45 41 16 -3 34 0 46 9 20 14 20
15 1 73 -21 64 -36 95 -79 165 -16 26 -27 53 -25 59 2 6 20 17 39 23 30 10 40
10 55 -1 10 -7 25 -13 33 -13 17 0 131 -84 144 -107 7 -11 47 -19 47 -10 0 2
-8 19 -17 38 -32 65 -93 147 -141 188 -75 66 -77 67 -119 87 -69 32 -71 47
-16 102 116 113 158 223 150 390 -2 53 -7 111 -11 127 -10 43 -58 165 -68 171
-4 3 -8 15 -8 27 0 21 3 22 132 23 73 1 158 5 188 10 52 9 55 10 53 37 -3 38
-20 57 -52 57 -14 0 -35 7 -45 15 -11 8 -31 15 -44 15 -13 0 -33 5 -44 11 -50
27 -161 35 -312 23 -101 -7 -130 -1 -122 29 7 30 -5 46 -40 56 -28 7 -29 11
-41 91 -6 46 -17 95 -24 109 -6 14 -19 41 -28 59 -32 66 -185 193 -212 176
-15 -9 -10 -24 19 -63 52 -69 70 -106 79 -158 5 -29 3 -33 -18 -33 -13 0 -33
10 -44 23 -29 34 -125 108 -160 124 -16 7 -48 24 -70 38 -22 13 -46 24 -53 25
-7 0 -45 24 -85 54 -39 29 -106 70 -147 91 -41 20 -83 42 -94 47 -23 12 -120
43 -166 53 -19 4 -46 16 -59 26 -23 18 -52 19 -587 19 -546 0 -564 -1 -574
-19z m904 -3009 c14 -22 -149 -162 -188 -162 -8 0 -16 -7 -20 -15 -3 -8 -18
-15 -33 -15 l-27 0 30 28 c32 29 60 109 49 143 -6 16 1 18 72 22 43 1 86 4 95
5 9 1 19 -2 22 -6z m-552 -49 c0 -27 0 -58 -1 -69 -1 -12 5 -24 14 -28 8 -3
15 -12 15 -21 0 -8 15 -24 33 -35 38 -23 14 -28 -29 -5 -16 8 -45 15 -64 15
-25 0 -43 9 -67 32 -30 29 -44 68 -25 68 7 0 63 45 92 74 25 24 30 18 32 -31z
m-118 -322 c13 -14 16 -28 10 -55 -8 -43 -27 -43 -32 0 -2 16 -8 34 -14 41
-10 12 -3 33 11 33 4 0 16 -9 25 -19z m61 -42 c4 -11 4 -31 1 -45 -8 -32 3
-74 20 -74 8 0 14 -7 14 -15 0 -25 -24 -17 -38 13 -18 37 -28 142 -14 142 6 0
14 -9 17 -21z"/>
<path d="M3301 5794 c-1 -50 4 -105 10 -123 6 -17 8 -39 5 -48 -6 -14 -10 -13
-34 9 -15 13 -65 42 -112 63 -47 21 -89 42 -95 47 -5 4 -15 8 -23 8 -8 0 -28
6 -45 14 -75 33 -210 69 -338 90 -122 20 -116 21 -134 -13 -25 -49 -21 -138 9
-191 13 -25 45 -85 71 -135 25 -49 56 -110 70 -135 14 -25 30 -63 36 -85 11
-41 63 -118 96 -145 35 -27 78 -55 103 -66 14 -6 43 -19 65 -29 24 -11 71 -19
120 -21 72 -3 80 -5 88 -26 11 -31 14 -33 31 -19 8 7 21 9 27 5 9 -5 7 -11 -6
-20 -14 -11 -17 -22 -12 -58 4 -25 11 -54 16 -63 6 -10 18 -46 28 -80 18 -64
29 -77 40 -45 3 9 12 24 19 32 76 90 138 376 116 533 -8 57 -23 101 -57 170
l-46 92 5 114 c5 102 4 116 -14 141 -11 15 -24 38 -29 51 -7 18 -10 0 -10 -67z
m-379 -278 c33 -14 37 -19 32 -44 -4 -18 3 -46 20 -82 29 -63 44 -84 69 -93
23 -9 22 -27 -3 -27 -41 0 -170 87 -170 115 0 5 -6 16 -14 24 -21 25 -49 108
-41 121 9 14 54 8 107 -14z m399 -125 c33 -33 38 -74 12 -103 -12 -14 -31 -18
-80 -18 -61 0 -83 13 -45 27 28 11 51 46 52 79 0 53 18 57 61 15z m-171 -51
c-20 -13 -47 -13 -55 0 -4 6 9 10 32 10 28 0 34 -3 23 -10z"/>
<path d="M3855 2588 c-9 -38 -25 -70 -42 -81 -7 -4 -13 -16 -13 -25 0 -9 -18
-45 -40 -80 -22 -34 -40 -67 -40 -71 0 -5 -7 -11 -15 -15 -8 -3 -15 -11 -15
-17 0 -7 10 -3 23 9 13 12 30 22 38 22 8 0 21 6 28 13 11 10 12 8 7 -13 -4
-14 -12 -44 -16 -68 -5 -23 -14 -52 -21 -63 -8 -15 -8 -24 0 -32 7 -7 13 -3
20 15 5 14 13 27 18 29 8 4 52 92 87 172 9 21 19 64 22 95 10 99 -24 188 -41
110z"/>
<path d="M3470 2165 c0 -8 7 -15 15 -15 8 0 15 -4 15 -9 0 -14 49 -65 55 -59
8 7 -5 38 -16 38 -5 0 -9 7 -9 15 0 8 -6 15 -14 15 -8 0 -16 7 -20 15 -3 8
-10 15 -16 15 -5 0 -10 -7 -10 -15z"/>
<path d="M3320 2136 c0 -22 26 -44 60 -51 16 -4 32 -11 35 -16 4 -5 16 -9 29
-9 12 0 27 -5 34 -12 8 -8 12 -9 12 -1 0 28 -111 103 -152 103 -10 0 -18 -6
-18 -14z"/>
<path d="M3562 2048 c2 -12 9 -23 16 -26 18 -6 15 35 -4 42 -11 4 -15 0 -12
-16z"/>
</g>
</svg>
